<svg width="672" height="448" viewBox="0 0 672 448" fill="none" xmlns="http://www.w3.org/2000/svg">
<g id="fifth">
<path id="Vector" opacity="0.4" d="M649.69 173.84C661.796 173.84 671.61 164.026 671.61 151.92C671.61 139.814 661.796 130 649.69 130C637.584 130 627.77 139.814 627.77 151.92C627.77 164.026 637.584 173.84 649.69 173.84Z" fill="#43C07D"/>
<path id="Vector_2" d="M658 297.282H355V447.282H658V297.282Z" fill="#3F3D56"/>
<g id="groundflower">
<path id="Vector_3" d="M468.971 184.041L467.451 184.469L494.942 282.031L496.462 281.602L468.971 184.041Z" fill="#3F3D56"/>
<path id="Vector_4" d="M519.887 237.552C525.851 267.485 507.302 299.63 507.302 299.63C497.781 283.4 490.993 265.716 487.211 247.284C481.246 217.351 480.57 192.257 485.702 191.234C490.833 190.212 513.922 207.62 519.887 237.552Z" fill="#3F3D56"/>
<path id="Vector_5" d="M454.547 265.115C471.541 290.467 507.404 300.016 507.404 300.016C502.628 281.816 494.891 264.525 484.504 248.836C467.51 223.484 450.21 205.293 445.864 208.206C441.518 211.12 437.553 239.762 454.547 265.115Z" fill="#43C07D"/>
<path id="Vector_6" d="M468.211 194.518C473.879 194.518 478.474 189.923 478.474 184.255C478.474 178.587 473.879 173.992 468.211 173.992C462.543 173.992 457.948 178.587 457.948 184.255C457.948 189.923 462.543 194.518 468.211 194.518Z" fill="#3F3D56"/>
<path id="Vector_7" d="M470.848 182.026C473.464 182.026 475.585 179.905 475.585 177.289C475.585 174.673 473.464 172.552 470.848 172.552C468.232 172.552 466.111 174.673 466.111 177.289C466.111 179.905 468.232 182.026 470.848 182.026Z" fill="#D9FFE9"/>
<path id="Vector_8" d="M556.884 186.516L512.615 277.699L514.035 278.388L558.304 187.206L556.884 186.516Z" fill="#3F3D56"/>
<path id="Vector_9" d="M560.808 261.437C545.38 287.771 510.16 299.473 510.16 299.473C513.826 281.018 520.502 263.291 529.921 247.001C545.349 220.667 561.515 201.462 566.03 204.107C570.544 206.752 576.236 235.102 560.808 261.437Z" fill="#43C07D"/>
<path id="Vector_10" d="M493.933 238.322C489.791 268.561 510.252 299.524 510.252 299.524C518.773 282.748 524.478 264.685 527.138 246.057C531.28 215.818 530.435 190.73 525.251 190.019C520.068 189.309 498.075 208.083 493.933 238.322Z" fill="#D9FFE9"/>
<path id="Vector_11" d="M557.594 197.124C563.262 197.124 567.857 192.529 567.857 186.861C567.857 181.193 563.262 176.598 557.594 176.598C551.926 176.598 547.331 181.193 547.331 186.861C547.331 192.529 551.926 197.124 557.594 197.124Z" fill="#3F3D56"/>
<path id="Vector_12" d="M564.193 188.143C566.809 188.143 568.93 186.023 568.93 183.407C568.93 180.79 566.809 178.67 564.193 178.67C561.577 178.67 559.456 180.79 559.456 183.407C559.456 186.023 561.577 188.143 564.193 188.143Z" fill="#D9FFE9"/>
</g>
<path id="Vector_13" opacity="0.4" d="M31.2479 184.496C48.5057 184.496 62.4958 170.506 62.4958 153.248C62.4958 135.99 48.5057 122 31.2479 122C13.9902 122 0 135.99 0 153.248C0 170.506 13.9902 184.496 31.2479 184.496Z" fill="#43C07D"/>
<path id="Vector_14" d="M327.726 296.534H24.7263V446.534H327.726V296.534Z" fill="#3F3D56"/>
<path id="Vector_15" d="M174.251 181.104L172.677 181.227L180.571 282.28L182.146 282.157L174.251 181.104Z" fill="#3F3D56"/>
<path id="Vector_16" d="M213.727 239.534C213.727 270.055 189.253 297.956 189.253 297.956C183.088 280.178 179.887 261.508 179.78 242.692C179.78 212.171 184.021 187.429 189.253 187.429C194.485 187.429 213.727 209.013 213.727 239.534Z" fill="#D9FFE9"/>
<path id="Vector_17" d="M144.341 253.394C156.052 281.579 189.358 297.953 189.358 297.953C188.231 279.17 184.022 260.701 176.901 243.284C165.19 215.1 151.779 193.879 146.947 195.886C142.116 197.894 132.629 225.21 144.341 253.394Z" fill="#43C07D"/>
<path id="Vector_18" d="M173.464 191.429C179.132 191.429 183.727 186.834 183.727 181.165C183.727 175.497 179.132 170.902 173.464 170.902C167.796 170.902 163.201 175.497 163.201 181.165C163.201 186.834 167.796 191.429 173.464 191.429Z" fill="#3F3D56"/>
<path id="Vector_19" d="M177.411 179.587C180.027 179.587 182.148 177.466 182.148 174.85C182.148 172.234 180.027 170.113 177.411 170.113C174.795 170.113 172.674 172.234 172.674 174.85C172.674 177.466 174.795 179.587 177.411 179.587Z" fill="#D9FFE9"/>
<path id="Vector_20" d="M314.771 300.196C301.768 297.993 289.263 296.101 277.255 294.52L282.002 285.317C280.401 284.761 273.369 290.031 273.369 290.031L279.598 263.316C271.548 264.287 267.455 291.565 267.455 291.565L258.461 282.342L262.815 292.711C231.229 288.892 199.448 286.892 167.632 286.72L171.695 278.843C170.094 278.287 163.062 283.558 163.062 283.558L169.291 256.842C161.241 257.813 157.148 285.091 157.148 285.091L148.154 275.869L152.766 286.851C134.475 287.153 116.212 288.393 98.0486 290.567C102.158 278.296 116.118 266.625 116.118 266.625C105.457 269.796 99.8644 275.109 96.9423 280.063C96.6812 254.743 100.891 229.576 109.379 205.72C109.379 205.72 87.3432 253.672 90.1549 285.859L90.4913 291.575C71.8099 294.249 64.4604 300.534 64.4604 300.534L314.771 300.196Z" fill="#43C07D"/>
<g id="handflower">
<path id="Vector_21" d="M404.378 10.9912L405.952 11.1142L398.057 112.167L396.483 112.044L404.378 10.9912Z" fill="#3F3D56"/>
<path id="Vector_22" d="M364.902 73.4214C364.902 103.943 389.375 131.843 389.375 131.843C395.541 114.065 398.742 95.3953 398.849 76.5794C398.849 46.0582 394.608 21.3159 389.375 21.3159C384.143 21.3159 364.902 42.9003 364.902 73.4214Z" fill="#43C07D"/>
<path id="Vector_23" d="M434.288 87.2816C422.576 115.466 389.27 131.84 389.27 131.84C390.398 113.057 394.607 94.5883 401.727 77.1715C413.439 48.9867 426.85 27.766 431.681 29.7737C436.513 31.7814 445.999 59.0968 434.288 87.2816Z" fill="#43C07D"/>
<path id="Vector_24" d="M405.165 21.3159C399.497 21.3159 394.902 16.7209 394.902 11.0527C394.902 5.38448 399.497 0.78949 405.165 0.78949C410.833 0.78949 415.428 5.38448 415.428 11.0527C415.428 16.7209 410.833 21.3159 405.165 21.3159Z" fill="#3F3D56"/>
<path id="Vector_25" d="M401.217 9.47374C398.601 9.47374 396.481 7.35297 396.481 4.73687C396.481 2.12077 398.601 0 401.217 0C403.834 0 405.954 2.12077 405.954 4.73687C405.954 7.35297 403.834 9.47374 401.217 9.47374Z" fill="#D9FFE9"/>
</g>
<path id="Vector_26" d="M381.329 138.275C381.329 138.275 389.458 115.243 395.329 122.469C401.2 129.695 386.297 141.888 386.297 141.888L381.329 138.275Z" fill="#A0616A"/>
<path id="Vector_27" d="M342.942 115.695L347.832 117.507C347.832 117.507 350.168 127.888 349.265 129.695C348.362 131.501 347.91 130.146 349.265 133.759C350.62 137.372 354.684 146.856 355.136 148.211C355.587 149.566 381.329 139.63 381.329 134.662C381.329 134.662 386.749 140.985 389.458 142.34C389.458 142.34 359.652 164.017 355.587 166.727C351.523 169.437 349.265 168.082 345.652 164.92C342.039 161.759 326.684 135.566 326.684 135.566L342.942 115.695Z" fill="#D9FFE9"/>
<path id="Vector_28" d="M356.039 276.017C356.039 276.017 355.587 280.985 354.684 281.437C353.781 281.888 347.007 293.179 354.684 295.437C362.361 297.695 366.878 296.792 368.684 297.695C370.49 298.598 402.103 300.405 402.555 295.437C403.007 290.469 387.2 289.566 387.2 289.566C387.2 289.566 372.748 280.082 370.49 275.114C368.232 270.146 356.039 276.017 356.039 276.017Z" fill="#D9FFE9"/>
<path id="Vector_29" d="M264.361 285.05C264.361 285.05 253.523 303.566 256.232 305.824C258.942 308.082 285.331 316.311 289.2 316.663C294.168 317.114 297.781 313.05 293.716 310.792C289.652 308.534 281.071 299.05 281.071 295.889V287.76L264.361 285.05Z" fill="#D9FFE9"/>
<path id="Vector_30" d="M253.974 164.017C253.974 164.017 244.49 175.759 259.394 194.727L284.232 226.34C284.232 226.34 268.877 250.727 268.426 263.372C267.974 276.018 264.813 273.308 263.91 278.727C263.006 284.147 258.942 281.437 262.103 285.501C265.265 289.566 277.006 293.179 280.619 290.018C281.862 288.881 282.833 287.478 283.458 285.914C284.084 284.351 284.348 282.666 284.232 280.985C284.232 279.179 290.555 268.792 291.007 265.63C291.458 262.469 308.168 236.727 308.168 236.727C308.168 236.727 313.587 221.372 307.265 212.792C300.942 204.211 296.764 192.041 296.764 192.041C296.764 192.041 315.394 214.598 328.49 220.017C328.49 220.017 333.458 220.921 332.555 223.179C331.652 225.437 332.555 226.792 333.91 229.05C335.265 231.308 344.749 257.501 347.91 264.276C351.071 271.05 349.716 275.114 353.329 277.372C356.942 279.631 373.2 277.824 373.2 275.566C373.2 273.308 370.942 267.437 369.587 264.276C368.232 261.114 357.394 224.534 358.297 218.211C359.2 211.888 357.845 203.308 351.071 199.695C344.297 196.082 309.974 166.727 308.168 166.727C306.361 166.727 253.974 164.017 253.974 164.017Z" fill="#43C07D"/>
<path id="Vector_31" d="M344.749 93.1139C334.273 93.1139 325.781 84.6217 325.781 74.1461C325.781 63.6705 334.273 55.1783 344.749 55.1783C355.224 55.1783 363.716 63.6705 363.716 74.1461C363.716 84.6217 355.224 93.1139 344.749 93.1139Z" fill="#A0616A"/>
<path id="Vector_32" d="M329.394 75.9526C329.394 75.9526 323.523 86.3398 316.297 87.6946C309.071 89.0495 335.265 109.824 335.265 109.824C335.265 109.824 341.587 89.9527 347.007 89.0495C352.426 88.1462 329.394 75.9526 329.394 75.9526Z" fill="#A0616A"/>
<path id="Vector_33" d="M347.91 118.404C347.91 124.275 330.297 140.985 330.297 140.985L313.587 154.985C313.587 154.985 313.136 159.953 311.329 160.404C309.523 160.856 307.265 160.856 309.071 163.566C310.878 166.275 315.394 172.146 311.329 173.05C310.104 173.236 308.869 173.354 307.631 173.402C306.547 173.465 305.273 173.524 303.841 173.578C300.5 173.695 296.318 173.772 291.788 173.741C290.501 173.736 289.191 173.721 287.859 173.695C270.783 173.357 251.003 171.392 252.619 164.921C255.329 154.082 253.523 150.469 259.394 144.598C265.265 138.727 274.749 118.404 274.749 118.404C274.749 118.404 293.716 86.3398 309.523 86.3398L312.806 85.4772C314.332 85.0753 315.945 85.1635 317.418 85.7292C318.89 86.2949 320.148 87.3096 321.012 88.6295C324.182 93.4572 329.182 100.71 332.103 103.049C336.62 106.662 337.324 104.07 337.324 104.07C337.324 104.07 347.91 112.533 347.91 118.404Z" fill="#43C07D"/>
<path id="Vector_34" d="M307.716 187.05C307.716 187.05 320.813 207.372 312.684 210.985C304.555 214.598 300.039 189.759 300.039 189.759L307.716 187.05Z" fill="#A0616A"/>
<path id="Vector_35" d="M332.349 72.0037C333.077 71.9119 333.307 70.9933 333.429 70.2699C334.085 66.3958 336.973 62.7222 340.852 62.0968C342.334 61.8996 343.842 62.0211 345.274 62.4532C347.325 63.0161 349.251 63.9639 350.948 65.2462C351.779 66.0053 352.739 66.6085 353.784 67.0268C354.496 67.2358 357.518 68.5794 358.224 68.8067C359.776 69.3065 361.061 70.9314 362.66 70.6097C364.19 70.3019 364.77 68.4547 365.016 66.9139C365.576 63.4036 363.567 58.1659 361.57 55.2256C360.054 52.9944 357.488 51.7102 354.923 50.8748C351.918 49.9627 348.831 49.3492 345.706 49.0433C341.487 48.545 337.117 48.2806 333.074 49.5847C329.031 50.8888 325.349 54.079 324.594 58.2598C324.437 59.1306 324.407 60.0226 324.215 60.8864C323.745 62.9934 322.351 64.7645 321.537 66.7644C320.951 68.2331 320.678 69.8084 320.738 71.3889C320.797 72.9693 321.187 74.5198 321.883 75.9402C323.009 78.2049 324.967 80.3811 324.545 82.8748L328.03 80.1268C328.533 79.8406 328.923 79.3904 329.135 78.8512C329.347 78.3121 329.367 77.7167 329.193 77.1643L328.686 72.8005C328.511 72.0099 328.59 71.1841 328.912 70.4412C330.461 67.7354 331.135 72.1569 332.349 72.0037Z" fill="#43C07D"/>
<path id="Vector_36" opacity="0.1" d="M299.587 155.888L303.841 173.578C299.551 173.731 293.874 173.813 287.859 173.695C286.341 169.143 284.892 164.397 283.781 159.953C279.716 143.695 286.49 118.856 290.103 107.114C293.716 95.372 302.749 92.2107 302.749 92.2107C306.451 93.5129 309.949 95.3379 313.136 97.6301C319.007 101.695 299.587 155.888 299.587 155.888Z" fill="black"/>
<path id="Vector_37" opacity="0.1" d="M303.2 154.985L307.631 173.402C306.547 173.465 305.273 173.524 303.841 173.578C300.5 173.695 296.318 173.772 291.788 173.741C290.158 168.904 288.581 163.801 287.394 159.05C283.329 142.791 290.103 117.953 293.716 106.211C297.329 94.4688 305.232 107.34 305.232 107.34C305.232 107.34 302.071 99.6623 307.942 103.727C313.813 107.791 303.2 154.985 303.2 154.985Z" fill="black"/>
<path id="Vector_38" d="M304.555 91.3075C304.555 91.3075 295.523 94.4688 291.91 106.211C288.297 117.953 281.523 142.791 285.587 159.05C289.652 175.308 298.232 195.63 298.232 195.63C298.232 195.63 306.813 189.308 309.974 190.663L301.394 154.985C301.394 154.985 320.813 100.791 314.942 96.7269C311.756 94.4347 308.258 92.6097 304.555 91.3075Z" fill="#D9FFE9"/>
</g>
</svg>
