<svg width="606" height="568" viewBox="0 0 606 568" fill="none" xmlns="http://www.w3.org/2000/svg">
<g id="first">
<path id="Vector" d="M362.616 315.959L359.795 316.021L365.187 561.022L368.007 560.96L362.616 315.959Z" fill="#3F3D56"/>
<path id="Vector_2" d="M362.676 424.438C362.421 423.569 356.574 402.906 369.235 382.596L371.628 384.089C359.656 403.293 365.324 423.444 365.383 423.646L362.676 424.438Z" fill="#3F3D56"/>
<path id="leafright" d="M370.225 384.164C370.225 384.164 366.376 357.856 401.833 350.636C409.22 349.132 416.165 348.104 422.531 347.419C430.045 346.611 432.976 356.897 426.188 360.219C416.357 365.031 407.109 371.093 402.289 378.272C388.996 398.072 370.225 384.164 370.225 384.164Z" fill="#43C07D"/>
<path id="Vector_3" d="M366.324 500.515L363.617 499.723C363.675 499.52 369.344 479.37 357.371 460.165L359.765 458.672C372.426 478.983 366.579 499.646 366.324 500.515Z" fill="#3F3D56"/>
<path id="leafleft" d="M358.775 460.24C358.775 460.24 362.624 433.933 327.167 426.713C319.78 425.208 312.835 424.18 306.469 423.496C298.955 422.687 296.024 432.973 302.812 436.296C312.643 441.107 321.891 447.17 326.711 454.349C340.004 474.148 358.775 460.24 358.775 460.24H358.775Z" fill="#43C07D"/>
<path id="sunflowermedium" d="M408.126 281.941C415.263 280.06 421.937 276.781 421.716 273.537C421.453 269.683 411.544 267.101 402.996 266.709C409.444 261.664 415.368 254.691 413.556 251.538C411.891 248.638 404.143 249.761 396.994 252.315C401.224 246.267 404.199 239.451 401.933 237.119C399.112 234.213 389.097 239.228 382.263 244.771C383.594 236.135 382.921 225.235 379.048 224.249C375.807 223.424 371.215 229.765 368.066 236.672C366.675 229.423 363.858 222.541 360.606 222.541C355.975 222.541 352.22 236.506 352.22 245.604C352.22 246.118 352.234 246.602 352.257 247.065C351.792 246.526 351.259 245.963 350.652 245.373C344.125 239.034 331.492 231.999 328.265 235.322C326 237.654 328.974 244.469 333.204 250.518C326.056 247.964 318.307 246.841 316.642 249.74C314.404 253.636 323.97 263.361 331.746 268.077C331.279 268.021 330.787 267.974 330.265 267.938C321.188 267.319 307 270.114 306.685 274.735C306.464 277.979 313.138 281.258 320.275 283.139C313.169 285.811 306.53 289.961 307.133 293.25C307.864 297.241 319.019 298.639 327.79 297.821C321.237 304.107 314.132 315.369 317.098 318.67C319.27 321.088 326.272 318.585 332.595 314.776C329.56 321.734 327.913 329.388 330.692 331.247C334.365 333.704 344.438 325.153 349.749 317.795C349.207 326.797 351.361 339.163 355.635 339.651C358.865 340.02 362.445 333.502 364.65 326.458C366.995 333.678 370.838 340.499 374.151 340.047C378.459 339.459 380.337 326.783 379.533 317.775C385.012 324.831 394.231 332.376 397.709 330.049C400.489 328.19 398.841 320.536 395.806 313.578C402.129 317.387 409.131 319.89 411.304 317.472C414.269 314.171 407.164 302.909 400.612 296.623C409.382 297.441 420.537 296.043 421.268 292.052C421.871 288.763 415.232 284.612 408.126 281.941ZM369.696 307.403C367.862 307.654 366.184 308.011 364.909 308.924C363.553 307.579 361.574 307.169 359.373 306.917C356.909 306.636 354.669 306.609 352.961 308.031C352.337 306.294 350.8 305.06 349.01 303.863C347.471 302.833 345.979 301.988 344.418 301.825C344.296 299.92 343.087 298.3 341.607 296.652C340.663 295.601 339.718 294.662 338.67 294.034C340.182 292.193 340.008 289.866 339.54 287.313C339.206 285.491 338.773 283.832 337.803 282.599C339.085 281.184 339.404 279.188 339.555 276.978C339.72 274.565 339.651 272.377 338.258 270.747C341.858 271.205 343.595 268.963 345.21 266.152C346.132 264.547 346.874 263 346.93 261.432C348.823 261.181 350.356 259.864 351.9 258.275C353.218 256.917 354.339 255.573 354.761 254.026C356.271 255.296 358.332 255.488 360.606 255.488C362.822 255.488 364.835 255.305 366.334 254.122C367.498 255.174 369.124 255.72 370.918 256.176C372.631 256.613 374.248 256.904 375.718 256.611C376.255 257.837 377.209 258.95 378.298 260.072C379.842 261.661 381.375 262.978 383.268 263.229C383.325 264.797 384.066 266.344 384.989 267.949C386.074 269.839 387.215 271.473 388.939 272.202C388.738 273.3 388.759 274.508 388.846 275.78C388.997 277.99 389.316 279.986 390.598 281.401C389.628 282.634 389.195 284.293 388.861 286.114C388.393 288.668 388.219 290.995 389.731 292.836C388.683 293.464 387.738 294.403 386.795 295.454C385.314 297.102 384.105 298.722 383.983 300.627C382.422 300.79 380.93 301.635 379.391 302.665C377.289 304.071 375.538 305.528 375.202 307.791C373.624 307.026 371.736 307.125 369.696 307.403Z" fill="#43C07D"/>
<path id="Vector_4" d="M364.8 311.796C381.341 311.796 394.751 298.387 394.751 281.845C394.751 265.303 381.341 251.894 364.8 251.894C348.258 251.894 334.848 265.303 334.848 281.845C334.848 298.387 348.258 311.796 364.8 311.796Z" fill="#3F3D56"/>
<path id="Vector_5" d="M0 565C0 566.664 0.61219 568 1.37453 568H604.626C605.388 568 606 566.664 606 565C606 563.336 605.388 562 604.626 562H1.37453C0.61219 562 0 563.336 0 565Z" fill="#43C07D"/>
<path id="Vector_6" d="M104.844 155.978L102.845 156.022L111.845 565.022L113.844 564.978L104.844 155.978Z" fill="#3F3D56"/>
<path id="Vector_7" d="M107.599 336.66C107.496 336.311 97.581 301.302 118.398 267.909L120.095 268.967C99.747 301.608 109.417 335.756 109.518 336.098L107.599 336.66Z" fill="#3F3D56"/>
<path id="leafright_2" d="M118.901 269.809C118.901 269.809 112.475 225.892 171.668 213.839C183.999 211.328 195.592 209.612 206.22 208.468C218.764 207.119 223.657 224.29 212.325 229.837C195.913 237.869 180.475 247.989 172.429 259.974C150.237 293.027 118.901 269.809 118.901 269.809Z" fill="#43C07D"/>
<path id="Vector_8" d="M111.09 463.66L109.171 463.098C109.271 462.757 118.922 428.577 98.5933 395.967L100.291 394.908C121.107 428.302 111.192 463.311 111.09 463.66Z" fill="#3F3D56"/>
<path id="leafleft_2" d="M99.7877 396.809C99.7877 396.809 106.213 352.892 47.0208 340.839C34.6891 338.328 23.0959 336.612 12.4689 335.468C-0.0753393 334.119 -4.96849 351.29 6.36361 356.837C22.7751 364.869 38.213 374.989 46.2595 386.974C68.4518 420.027 99.7877 396.809 99.7877 396.809Z" fill="#43C07D"/>
<path id="sunflowerbig" d="M182.173 99.1611C194.087 96.0196 205.229 90.5457 204.859 85.1306C204.42 78.6978 187.879 74.3876 173.609 73.7317C184.372 65.3109 194.262 53.6702 191.238 48.4056C188.457 43.5656 175.522 45.4404 163.588 49.7032C170.651 39.6062 175.616 28.2286 171.835 24.335C167.124 19.4847 150.407 27.8563 138.998 37.1099C141.219 22.6937 140.096 4.49665 133.63 2.85029C128.22 1.47297 120.554 12.0584 115.298 23.5894C112.975 11.4885 108.272 0 102.844 0C95.1122 0 88.8442 23.3121 88.8442 38.5C88.8442 39.3585 88.867 40.1667 88.9062 40.9388C88.1301 40.0391 87.2407 39.0992 86.2264 38.1141C75.331 27.5329 54.2406 15.7883 48.8538 21.335C45.0724 25.2286 50.0376 36.6062 57.1 46.7032C45.166 42.4404 32.2312 40.5656 29.4507 45.4056C25.7146 51.909 41.6844 68.1436 54.6654 76.0166C53.885 75.9226 53.0652 75.8434 52.1927 75.7839C37.0401 74.7501 13.3554 79.4166 12.829 87.1306C12.4595 92.5457 23.6012 98.0196 35.5158 101.161C23.6537 105.62 12.5711 112.548 13.577 118.039C14.7978 124.703 33.4192 127.035 48.0606 125.67C37.1224 136.164 25.2617 154.965 30.2115 160.474C33.8388 164.512 45.5279 160.333 56.0822 153.974C51.0169 165.59 48.2658 178.368 52.9054 181.471C59.0368 185.573 75.8525 171.298 84.7184 159.015C83.815 174.042 87.4106 194.686 94.5449 195.5C99.9375 196.116 105.913 185.235 109.594 173.476C113.508 185.529 119.924 196.916 125.455 196.161C132.647 195.18 135.782 174.019 134.441 158.982C143.586 170.759 158.977 183.355 164.783 179.471C169.423 176.368 166.672 163.59 161.606 151.974C172.161 158.333 183.85 162.512 187.477 158.474C192.427 152.965 180.566 134.164 169.628 123.67C184.269 125.035 202.891 122.703 204.111 116.039C205.117 110.548 194.035 103.62 182.173 99.1611L182.173 99.1611ZM118.019 141.666C114.956 142.084 112.156 142.681 110.026 144.205C107.764 141.959 104.459 141.275 100.785 140.856C96.6712 140.386 92.9327 140.34 90.0819 142.714C89.0387 139.815 86.4736 137.755 83.4857 135.756C80.9165 134.038 78.4249 132.627 75.8203 132.355C75.6168 129.174 73.5975 126.47 71.1262 123.719C69.5505 121.965 67.9739 120.396 66.2246 119.347C68.7485 116.274 68.4575 112.39 67.6766 108.128C67.1196 105.087 66.3958 102.317 64.7763 100.259C66.9169 97.8963 67.4497 94.5641 67.7014 90.8747C67.9763 86.8463 67.8621 83.1938 65.5368 80.4741C71.5459 81.2384 74.4458 77.4948 77.1412 72.803C78.6809 70.1228 79.9188 67.5409 80.013 64.9238C83.1732 64.5042 85.7332 62.3056 88.3095 59.6527C90.5103 57.3866 92.3824 55.1427 93.0855 52.56C95.6073 54.6793 99.0482 55 102.844 55C106.542 55 109.903 54.6953 112.406 52.7206C114.349 54.4763 117.063 55.387 120.059 56.1497C122.918 56.8778 125.617 57.3647 128.071 56.8747C128.967 58.9212 130.56 60.7796 132.379 62.6527C134.955 65.3056 137.515 67.5042 140.675 67.9238C140.77 70.5409 142.007 73.1228 143.547 75.803C145.36 78.9579 147.263 81.6858 150.142 82.9029C149.806 84.7355 149.842 86.7526 149.987 88.8747C150.239 92.5641 150.771 95.8964 152.912 98.2588C151.293 100.317 150.569 103.087 150.012 106.128C149.231 110.39 148.94 114.274 151.464 117.348C149.714 118.396 148.138 119.965 146.562 121.719C144.091 124.47 142.072 127.174 141.868 130.355C139.264 130.627 136.772 132.038 134.203 133.756C130.694 136.104 127.771 138.537 127.209 142.314C124.576 141.037 121.424 141.202 118.019 141.666V141.666Z" fill="#43C07D"/>
<path id="Vector_9" d="M109.844 149C137.458 149 159.844 126.614 159.844 99C159.844 71.3858 137.458 49 109.844 49C82.23 49 59.8442 71.3858 59.8442 99C59.8442 126.614 82.23 149 109.844 149Z" fill="#3F3D56"/>
<path id="Vector_10" d="M571.812 466.252L569.812 466.296L571.963 564.022L573.963 563.978L571.812 466.252Z" fill="#3F3D56"/>
<path id="Vector_11" d="M570.979 509.655C570.875 509.301 568.491 500.876 573.644 492.61L575.341 493.669C570.676 501.151 572.876 509.016 572.898 509.094L570.979 509.655Z" fill="#3F3D56"/>
<path id="leftright" d="M574.41 493.468C574.41 493.468 572.875 482.974 587.018 480.094C589.964 479.494 592.734 479.084 595.274 478.811C598.271 478.489 599.44 482.592 596.733 483.917C592.811 485.836 589.122 488.254 587.2 491.118C581.897 499.015 574.41 493.468 574.41 493.468Z" fill="#43C07D"/>
<path id="Vector_12" d="M573.274 540L571.354 539.438C571.377 539.36 573.577 531.497 568.912 524.015L570.609 522.956C575.762 531.222 573.378 539.646 573.274 540Z" fill="#3F3D56"/>
<path id="leafleft_3" d="M569.843 523.813C569.843 523.813 571.378 513.319 557.235 510.439C554.289 509.839 551.519 509.429 548.979 509.156C545.982 508.834 544.813 512.937 547.52 514.262C551.442 516.181 555.131 518.599 557.053 521.463C562.356 529.36 569.843 523.813 569.843 523.813V523.813Z" fill="#43C07D"/>
<path id="sunflowersmall" d="M589.528 452.693C592.375 451.943 595.037 450.635 594.949 449.341C594.844 447.804 590.891 446.774 587.482 446.617C590.054 444.605 592.417 441.824 591.694 440.566C591.03 439.409 587.939 439.857 585.088 440.876C586.775 438.463 587.961 435.745 587.058 434.815C585.932 433.656 581.938 435.656 579.212 437.867C579.742 434.422 579.474 430.074 577.929 429.681C576.637 429.352 574.805 431.881 573.549 434.636C572.994 431.745 571.87 429 570.573 429C568.726 429 567.228 434.57 567.228 438.199C567.228 438.404 567.234 438.597 567.243 438.782C567.058 438.567 566.845 438.342 566.603 438.107C563.999 435.579 558.96 432.772 557.673 434.098C556.77 435.028 557.956 437.747 559.643 440.159C556.792 439.141 553.701 438.693 553.037 439.849C552.144 441.403 555.96 445.282 559.062 447.163C558.875 447.141 558.679 447.122 558.471 447.108C554.85 446.861 549.191 447.976 549.065 449.819C548.977 451.113 551.639 452.421 554.486 453.171C551.652 454.237 549.004 455.892 549.244 457.204C549.536 458.796 553.985 459.354 557.484 459.027C554.87 461.535 552.036 466.027 553.219 467.343C554.085 468.308 556.878 467.31 559.4 465.79C558.19 468.566 557.533 471.619 558.641 472.36C560.106 473.34 564.124 469.93 566.242 466.995C566.027 470.585 566.886 475.518 568.59 475.712C569.879 475.86 571.307 473.26 572.186 470.45C573.121 473.33 574.654 476.051 575.976 475.87C577.694 475.636 578.443 470.58 578.123 466.987C580.308 469.801 583.986 472.811 585.373 471.882C586.481 471.141 585.824 468.088 584.614 465.312C587.136 466.832 589.929 467.83 590.795 466.866C591.978 465.549 589.144 461.057 586.531 458.549C590.029 458.876 594.478 458.318 594.77 456.726C595.01 455.414 592.362 453.759 589.528 452.693ZM574.199 462.849C573.467 462.949 572.798 463.092 572.289 463.456C571.749 462.919 570.959 462.756 570.081 462.656C569.098 462.544 568.205 462.533 567.524 463.1C567.275 462.407 566.662 461.915 565.948 461.437C565.334 461.027 564.739 460.69 564.116 460.625C564.068 459.864 563.585 459.218 562.995 458.561C562.618 458.142 562.242 457.767 561.824 457.517C562.427 456.782 562.357 455.854 562.171 454.836C562.037 454.109 561.864 453.447 561.478 452.956C561.989 452.391 562.116 451.595 562.176 450.713C562.242 449.751 562.215 448.878 561.659 448.228C563.095 448.411 563.788 447.516 564.432 446.395C564.8 445.755 565.096 445.138 565.118 444.513C565.873 444.412 566.485 443.887 567.101 443.253C567.626 442.712 568.074 442.176 568.242 441.559C568.844 442.065 569.666 442.142 570.573 442.142C571.457 442.142 572.26 442.069 572.858 441.597C573.322 442.016 573.971 442.234 574.687 442.416C575.37 442.59 576.015 442.707 576.601 442.59C576.815 443.078 577.196 443.523 577.63 443.97C578.246 444.604 578.858 445.129 579.613 445.23C579.635 445.855 579.931 446.472 580.299 447.112C580.732 447.866 581.187 448.518 581.875 448.809C581.794 449.246 581.803 449.728 581.838 450.236C581.898 451.117 582.025 451.913 582.536 452.478C582.15 452.969 581.977 453.631 581.844 454.358C581.657 455.376 581.587 456.304 582.19 457.039C581.772 457.289 581.396 457.664 581.019 458.083C580.429 458.741 579.946 459.387 579.898 460.147C579.275 460.212 578.68 460.549 578.066 460.959C577.228 461.52 576.529 462.102 576.395 463.004C575.766 462.699 575.013 462.738 574.199 462.849Z" fill="#43C07D"/>
<path id="Vector_13" d="M572.246 464.602C578.844 464.602 584.193 459.253 584.193 452.655C584.193 446.057 578.844 440.708 572.246 440.708C565.648 440.708 560.299 446.057 560.299 452.655C560.299 459.253 565.648 464.602 572.246 464.602Z" fill="#3F3D56"/>
</g>
</svg>
