<svg width="671" height="453" viewBox="0 0 671 453" fill="none" xmlns="http://www.w3.org/2000/svg">
<g id="fourth">
<path id="Vector" opacity="0.4" d="M21.9202 171.98C34.0263 171.98 43.8403 162.166 43.8403 150.059C43.8403 137.953 34.0263 128.139 21.9202 128.139C9.81399 128.139 0 137.953 0 150.059C0 162.166 9.81399 171.98 21.9202 171.98Z" fill="#43C07D"/>
<path id="Vector_2" opacity="0.4" d="M648.92 182.98C661.026 182.98 670.84 173.166 670.84 161.059C670.84 148.953 661.026 139.139 648.92 139.139C636.814 139.139 627 148.953 627 161.059C627 173.166 636.814 182.98 648.92 182.98Z" fill="#43C07D"/>
<path id="Vector_3" d="M326.23 301.421H23.2305V452.421H326.23V301.421Z" fill="#3F3D56"/>
<path id="Vector_4" d="M660.23 302.421H357.23V452.421H660.23V302.421Z" fill="#3F3D56"/>
<g id="handflower">
<path id="Vector_5" d="M251.755 10.9912L250.181 11.1142L258.076 112.167L259.65 112.044L251.755 10.9912Z" fill="#3F3D56"/>
<path id="Vector_6" d="M291.231 73.4214C291.231 103.943 266.757 131.843 266.757 131.843C260.592 114.065 257.391 95.3953 257.284 76.5794C257.284 46.0582 261.525 21.3159 266.757 21.3159C271.99 21.3159 291.231 42.9003 291.231 73.4214Z" fill="#43C07D"/>
<path id="Vector_7" d="M221.845 87.2816C233.556 115.466 266.862 131.84 266.862 131.84C265.735 113.057 261.526 94.5883 254.405 77.1715C242.694 48.9867 229.283 27.766 224.451 29.7737C219.62 31.7814 210.133 59.0968 221.845 87.2816Z" fill="#43C07D"/>
<path id="Vector_8" d="M250.968 21.3159C256.636 21.3159 261.231 16.7209 261.231 11.0527C261.231 5.38448 256.636 0.78949 250.968 0.78949C245.3 0.78949 240.705 5.38448 240.705 11.0527C240.705 16.7209 245.3 21.3159 250.968 21.3159Z" fill="#3F3D56"/>
<path id="Vector_9" d="M254.915 9.47374C257.531 9.47374 259.652 7.35297 259.652 4.73687C259.652 2.12077 257.531 0 254.915 0C252.299 0 250.178 2.12077 250.178 4.73687C250.178 7.35297 252.299 9.47374 254.915 9.47374Z" fill="#D9FFE9"/>
</g>
<g id="groundflower">
<path id="Vector_10" d="M471.201 189.18L469.681 189.608L497.173 287.17L498.693 286.742L471.201 189.18Z" fill="#3F3D56"/>
<path id="Vector_11" d="M522.117 242.691C528.082 272.624 509.532 304.769 509.532 304.769C500.011 288.54 493.224 270.855 489.441 252.423C483.476 222.49 482.801 197.396 487.932 196.374C493.063 195.351 516.152 212.759 522.117 242.691Z" fill="#3F3D56"/>
<path id="Vector_12" d="M456.777 269.845C473.771 295.197 509.635 304.746 509.635 304.746C504.858 286.546 497.121 269.255 486.734 253.566C469.74 228.214 452.441 210.023 448.095 212.936C443.748 215.849 439.783 244.492 456.777 269.845Z" fill="#43C07D"/>
<path id="Vector_13" d="M470.441 199.657C476.109 199.657 480.704 195.062 480.704 189.394C480.704 183.726 476.109 179.131 470.441 179.131C464.773 179.131 460.178 183.726 460.178 189.394C460.178 195.062 464.773 199.657 470.441 199.657Z" fill="#3F3D56"/>
<path id="Vector_14" d="M473.078 187.165C475.694 187.165 477.815 185.045 477.815 182.429C477.815 179.812 475.694 177.692 473.078 177.692C470.462 177.692 468.341 179.812 468.341 182.429C468.341 185.045 470.462 187.165 473.078 187.165Z" fill="#D9FFE9"/>
<path id="Vector_15" d="M559.114 191.655L514.845 282.838L516.266 283.528L560.535 192.345L559.114 191.655Z" fill="#3F3D56"/>
<path id="Vector_16" d="M563.039 266.167C547.611 292.501 512.391 304.203 512.391 304.203C516.057 285.748 522.733 268.021 532.151 251.731C547.579 225.397 563.746 206.192 568.26 208.837C572.775 211.482 578.467 239.832 563.039 266.167Z" fill="#43C07D"/>
<path id="Vector_17" d="M496.163 243.052C492.021 273.29 512.483 304.254 512.483 304.254C521.004 287.478 526.708 269.414 529.368 250.787C533.51 220.548 532.666 195.459 527.482 194.749C522.298 194.039 500.305 212.813 496.163 243.052Z" fill="#D9FFE9"/>
<path id="Vector_18" d="M559.825 202.263C565.493 202.263 570.088 197.668 570.088 192C570.088 186.332 565.493 181.737 559.825 181.737C554.156 181.737 549.561 186.332 549.561 192C549.561 197.668 554.156 202.263 559.825 202.263Z" fill="#3F3D56"/>
<path id="Vector_19" d="M566.423 193.283C569.039 193.283 571.16 191.162 571.16 188.546C571.16 185.93 569.039 183.809 566.423 183.809C563.807 183.809 561.686 185.93 561.686 188.546C561.686 191.162 563.807 193.283 566.423 193.283Z" fill="#D9FFE9"/>
</g>
<path id="Vector_20" d="M274.804 138.275C274.804 138.275 266.674 115.243 260.804 122.469C254.933 129.695 269.836 141.888 269.836 141.888L274.804 138.275Z" fill="#A0616A"/>
<path id="Vector_21" d="M313.191 115.695L308.3 117.507C308.3 117.507 305.965 127.888 306.868 129.695C307.771 131.501 308.223 130.146 306.868 133.759C305.513 137.372 301.449 146.856 300.997 148.211C300.545 149.566 274.803 139.63 274.803 134.662C274.803 134.662 269.384 140.985 266.674 142.34C266.674 142.34 296.481 164.017 300.545 166.727C304.61 169.437 306.868 168.082 310.481 164.921C314.094 161.759 329.449 135.566 329.449 135.566L313.191 115.695Z" fill="#D9FFE9"/>
<path id="Vector_22" d="M300.094 276.018C300.094 276.018 300.546 280.985 301.449 281.437C302.352 281.888 309.126 293.179 301.449 295.437C293.771 297.695 289.255 296.792 287.449 297.695C285.642 298.598 254.029 300.405 253.578 295.437C253.126 290.469 268.933 289.566 268.933 289.566C268.933 289.566 283.384 280.082 285.642 275.114C287.9 270.146 300.094 276.018 300.094 276.018Z" fill="#D9FFE9"/>
<path id="Vector_23" d="M391.772 285.05C391.772 285.05 402.61 303.566 399.901 305.824C397.191 308.082 370.802 316.311 366.933 316.663C361.965 317.114 358.352 313.05 362.417 310.792C366.481 308.534 375.062 299.05 375.062 295.888V287.759L391.772 285.05Z" fill="#D9FFE9"/>
<path id="Vector_24" d="M402.159 164.017C402.159 164.017 411.643 175.759 396.739 194.727L371.901 226.34C371.901 226.34 387.255 250.727 387.707 263.372C388.159 276.018 391.32 273.308 392.223 278.727C393.126 284.147 397.191 281.437 394.03 285.501C390.868 289.566 379.126 293.179 375.513 290.018C374.271 288.881 373.3 287.478 372.675 285.914C372.049 284.351 371.785 282.666 371.901 280.985C371.901 279.179 365.578 268.792 365.126 265.63C364.675 262.469 347.965 236.727 347.965 236.727C347.965 236.727 342.546 221.372 348.868 212.792C355.191 204.211 359.369 192.041 359.369 192.041C359.369 192.041 340.739 214.598 327.642 220.017C327.642 220.017 322.675 220.921 323.578 223.179C324.481 225.437 323.578 226.792 322.223 229.05C320.868 231.308 311.384 257.501 308.223 264.276C305.062 271.05 306.417 275.114 302.804 277.372C299.191 279.631 282.933 277.824 282.933 275.566C282.933 273.308 285.191 267.437 286.546 264.276C287.9 261.114 298.739 224.534 297.836 218.211C296.933 211.888 298.288 203.308 305.062 199.695C311.836 196.082 346.159 166.727 347.965 166.727C349.771 166.727 402.159 164.017 402.159 164.017Z" fill="#43C07D"/>
<path id="Vector_25" d="M311.384 93.1139C321.86 93.1139 330.352 84.6217 330.352 74.1461C330.352 63.6705 321.86 55.1783 311.384 55.1783C300.909 55.1783 292.417 63.6705 292.417 74.1461C292.417 84.6217 300.909 93.1139 311.384 93.1139Z" fill="#A0616A"/>
<path id="Vector_26" d="M326.739 75.9526C326.739 75.9526 332.61 86.3398 339.836 87.6946C347.062 89.0495 320.868 109.824 320.868 109.824C320.868 109.824 314.546 89.9527 309.126 89.0495C303.707 88.1462 326.739 75.9526 326.739 75.9526Z" fill="#A0616A"/>
<path id="Vector_27" d="M308.223 118.404C308.223 124.275 325.836 140.985 325.836 140.985L342.546 154.985C342.546 154.985 342.997 159.953 344.804 160.404C346.61 160.856 348.868 160.856 347.062 163.566C345.255 166.275 340.739 172.146 344.804 173.05C346.029 173.236 347.264 173.354 348.502 173.402C349.586 173.465 350.86 173.524 352.291 173.578C355.633 173.695 359.815 173.772 364.345 173.741C365.632 173.736 366.942 173.721 368.274 173.695C385.349 173.357 405.13 171.392 403.513 164.921C400.804 154.082 402.61 150.469 396.739 144.598C390.868 138.727 381.384 118.404 381.384 118.404C381.384 118.404 362.417 86.3398 346.61 86.3398L343.327 85.4772C341.801 85.0753 340.188 85.1635 338.715 85.7292C337.243 86.2949 335.985 87.3096 335.121 88.6295C331.951 93.4572 326.951 100.71 324.029 103.049C319.513 106.662 318.809 104.07 318.809 104.07C318.809 104.07 308.223 112.533 308.223 118.404Z" fill="#43C07D"/>
<path id="Vector_28" d="M348.417 187.05C348.417 187.05 335.32 207.372 343.449 210.985C351.578 214.598 356.094 189.759 356.094 189.759L348.417 187.05Z" fill="#A0616A"/>
<path id="Vector_29" d="M323.784 72.0037C323.056 71.9119 322.826 70.9933 322.703 70.2699C322.047 66.3958 319.16 62.7222 315.281 62.0968C313.798 61.8996 312.291 62.0211 310.859 62.4532C308.807 63.0161 306.882 63.9639 305.184 65.2462C304.354 66.0053 303.393 66.6085 302.349 67.0268C301.637 67.2358 298.615 68.5794 297.909 68.8067C296.356 69.3065 295.072 70.9314 293.473 70.6097C291.943 70.3019 291.362 68.4547 291.116 66.9139C290.556 63.4036 292.566 58.1659 294.563 55.2256C296.079 52.9944 298.645 51.7102 301.21 50.8748C304.214 49.9627 307.302 49.3492 310.427 49.0433C314.646 48.545 319.016 48.2806 323.059 49.5847C327.102 50.8888 330.784 54.079 331.539 58.2598C331.696 59.1306 331.725 60.0226 331.918 60.8864C332.388 62.9934 333.782 64.7645 334.595 66.7644C335.182 68.2331 335.455 69.8084 335.395 71.3889C335.336 72.9693 334.946 74.5198 334.25 75.9402C333.124 78.2049 331.166 80.3811 331.588 82.8748L328.103 80.1268C327.6 79.8406 327.209 79.3904 326.998 78.8512C326.786 78.3121 326.766 77.7167 326.94 77.1643L327.447 72.8005C327.622 72.0099 327.543 71.1841 327.221 70.4412C325.672 67.7354 324.998 72.1569 323.784 72.0037Z" fill="#43C07D"/>
<path id="Vector_30" opacity="0.1" d="M356.546 155.888L352.291 173.578C356.582 173.731 362.258 173.813 368.274 173.695C369.791 169.143 371.241 164.397 372.352 159.953C376.417 143.695 369.642 118.856 366.029 107.114C362.417 95.372 353.384 92.2107 353.384 92.2107C349.681 93.5129 346.184 95.3379 342.997 97.6301C337.126 101.695 356.546 155.888 356.546 155.888Z" fill="black"/>
<path id="Vector_31" opacity="0.1" d="M352.933 154.985L348.502 173.402C349.586 173.465 350.86 173.524 352.291 173.578C355.633 173.695 359.815 173.772 364.345 173.741C365.975 168.904 367.551 163.801 368.739 159.05C372.804 142.791 366.029 117.953 362.417 106.211C358.804 94.4688 350.9 107.34 350.9 107.34C350.9 107.34 354.062 99.6623 348.191 103.727C342.32 107.791 352.933 154.985 352.933 154.985Z" fill="black"/>
<path id="Vector_32" d="M351.578 91.3075C351.578 91.3075 360.61 94.4688 364.223 106.211C367.836 117.953 374.61 142.791 370.546 159.05C366.481 175.308 357.9 195.63 357.9 195.63C357.9 195.63 349.32 189.308 346.158 190.663L354.739 154.985C354.739 154.985 335.32 100.791 341.191 96.7268C344.377 94.4346 347.875 92.6097 351.578 91.3075Z" fill="#D9FFE9"/>
<path id="Vector_33" d="M313.275 302.083C300.272 299.88 287.767 297.988 275.759 296.407L280.506 287.204C278.905 286.648 271.873 291.918 271.873 291.918L278.103 265.203C270.052 266.174 265.959 293.452 265.959 293.452L256.965 284.229L261.32 294.598C229.733 290.779 197.952 288.779 166.136 288.607L170.199 280.73C168.598 280.174 161.566 285.445 161.566 285.445L167.795 258.73C159.745 259.7 155.652 286.978 155.652 286.978L146.658 277.756L151.27 288.738C132.979 289.04 114.716 290.28 96.5527 292.455C100.662 280.183 114.622 268.513 114.622 268.513C103.961 271.683 98.3686 276.996 95.4465 281.95C95.1854 256.63 99.3955 231.463 107.883 207.607C107.883 207.607 85.8473 255.559 88.6591 287.746L88.9954 293.462C70.314 296.137 62.9646 302.421 62.9646 302.421L313.275 302.083Z" fill="#43C07D"/>
</g>
</svg>
