<svg width="278" height="377" viewBox="0 0 278 377" fill="none" xmlns="http://www.w3.org/2000/svg">
<g id="myarrow">
<rect id="Rectangle 1" x="2" width="274" height="19" fill="#BCF5BC"/>
<path id="tudorarrow" d="M169.715 119C171.621 134.25 173.705 149.657 172.215 165.444C170.279 185.972 167.544 206.638 164.16 226.944C161.591 242.354 155.771 256.81 150.715 271.444C148.699 277.281 146.082 283.54 142.715 288.778C140.173 292.732 136.264 296.193 133.937 300C131.884 303.36 127.678 307.989 124.16 310C120.268 312.224 118.13 317.26 114.215 319C111.498 320.208 109.538 324.144 106.715 325.778C104.737 326.923 101.475 328.839 99.9375 330.222C96.4643 333.348 91.945 334.294 87.493 335.778C73.067 340.586 57.9999 342 42.7152 342C34.3819 342 26.0486 342 17.7152 342C15.3819 342 13.0486 342 10.7152 342C7.16858 342 9.65291 344.226 10.493 346C15.7222 357.039 25.8034 365.088 34.2152 373.5C38.5115 377.796 32.7878 369.551 31.6597 368C26.496 360.9 21.8957 353.458 16.6597 346.389C12.5456 340.835 7.65928 335.827 3.71524 330.222C0.839873 326.136 1.62823 324.957 5.71525 321.778C12.0085 316.883 17.5456 311.5 24.7152 307.778C27.3016 306.435 33.7152 304.376 33.7152 301" stroke="black" stroke-width="3" stroke-linecap="round"/>
<g id="a">
<path id="Vector 45" d="M100.121 83.2769C100.121 88.2607 100.323 93.2862 99.3262 98.1993C98.9928 99.8422 98.5315 101.516 98.5315 103.203C98.5315 103.217 98.3387 102.373 98.2666 102.084" stroke="black" stroke-width="3" stroke-linecap="round"/>
<path id="Vector 46" d="M101.71 81.1577C103.172 81.1577 104.107 83.8863 104.683 84.9251C106.424 88.0672 107.938 91.2999 109.863 94.3436C111.377 96.7373 113.522 99.1108 114.425 101.82" stroke="black" stroke-width="3" stroke-linecap="round"/>
<path id="Vector 47" d="M99.3262 93.8727C101.256 93.6797 103.23 92.7109 105.198 92.4158C108.283 91.9531 111.373 91.6129 114.425 90.9589" stroke="black" stroke-width="3" stroke-linecap="round"/>
</g>
<g id="firstP">
<path id="Vector 48" d="M124.226 86.7205C123.88 87.369 123.973 88.1891 123.961 88.8985C123.935 90.5618 123.76 92.2114 123.711 93.8727C123.621 96.9378 123.615 100.049 123.711 103.115C123.788 105.573 124.421 107.927 125.021 110.296C125.117 110.673 125.816 113.82 125.816 112.15" stroke="black" stroke-width="3" stroke-linecap="round"/>
<path id="Vector 49" d="M124.226 86.9854C125.003 85.4758 126.199 83.2769 128.2 83.2769C130.899 83.2769 134.018 85.2672 135.97 86.9854C139.607 90.1861 132.551 91.4396 130.51 91.5034C127.533 91.5964 118.599 91.7535 121.577 91.7535" stroke="black" stroke-width="3" stroke-linecap="round"/>
</g>
<g id="secondP">
<path id="Vector 50" d="M141.709 83.8067C141.709 89.425 140.954 94.9863 141.312 100.642C141.5 103.608 141.979 106.51 142.225 109.457C142.37 111.208 142.239 107.107 142.239 106.588" stroke="black" stroke-width="3" stroke-linecap="round"/>
<path id="Vector 51" d="M141.445 85.3961C141.445 78.0786 150.061 85.0065 152.423 87.3681C153.75 88.6946 150.443 88.3099 149.862 88.3099C146.527 88.3099 143.191 88.3099 139.855 88.3099" stroke="black" stroke-width="3" stroke-linecap="round"/>
</g>
<g id="r">
<path id="Vector 52" d="M161.047 73.4758C161.047 78.0104 162.064 82.4518 162.106 86.9854C162.121 88.5107 162.106 90.0368 162.106 91.5622C162.106 92.1166 162.106 90.4536 162.106 89.8993" stroke="black" stroke-width="3" stroke-linecap="round"/>
<path id="Vector 53" d="M162.106 81.6875C162.239 79.1716 163.979 77.0897 166.624 76.9341C168.743 76.8095 172.455 76.4899 174.292 77.7141" stroke="black" stroke-width="3" stroke-linecap="round"/>
</g>
<path id="secondO" d="M195.748 74.2704C195.56 72.7682 188.21 74.9018 187.419 75.7568C185.057 78.3074 182.99 84.2257 186.756 86.4409C192.335 89.7223 198.207 85.7536 198.132 79.6272C198.079 75.3067 194.189 73.7875 190.45 74.5353" stroke="black" stroke-width="3" stroke-linecap="round"/>
<g id="secondA">
<path id="Vector 55" d="M205.549 70.0321C205.745 69.1505 207.432 69.0025 208.125 68.9578C210.951 68.7755 213.332 68.646 216.116 69.3699C219.493 70.248 223.402 74.717 218.912 77.0518C215.738 78.7021 216.259 82.4506 218.529 84.6014C220.539 86.5056 223.923 86.2322 226.476 86.1907C228.515 86.1576 231.318 85.7046 232.039 83.5418" stroke="black" stroke-width="3" stroke-linecap="round"/>
<path id="Vector 56" d="M219.324 77.1843C218.481 77.0906 217.758 76.4688 216.822 76.4043C215.563 76.3175 214.213 76.2738 213.099 76.9341C210.405 78.5302 208.445 81.6896 207.992 84.7485C207.057 91.058 216.614 88.4016 218.794 85.1311" stroke="black" stroke-width="3" stroke-linecap="round"/>
</g>
<path id="c" d="M243.164 70.297C242.999 68.9746 239.73 71.4336 239.456 71.6803C238.001 72.9877 235.655 75.8356 237.366 77.8318C238.931 79.6575 242.76 79.6364 244.886 79.1563C246.795 78.7252 247.388 77.8225 248.462 76.3896" stroke="black" stroke-width="3" stroke-linecap="round"/>
<g id="h">
<path id="Vector 58" d="M255.879 58.9065C255.879 62.3479 256.196 65.8171 256.806 69.208C257.261 71.7354 257.855 74.2578 257.984 76.8311C258.023 77.6247 258.083 78.3402 257.734 79.0385" stroke="black" stroke-width="3" stroke-linecap="round"/>
<path id="Vector 59" d="M258.263 70.0321C257.412 67.2655 258.363 66.3236 261.192 66.3236C263.711 66.3236 269.124 68.1109 269.124 71.3713C269.124 73.0371 267.482 77.3457 269.389 78.4499C272.421 80.2051 275.046 75.0485 275.747 72.946" stroke="black" stroke-width="3" stroke-linecap="round"/>
</g>
<path id="d" d="M176.941 40.8936C176.941 35.6799 169.665 37.2601 168.067 40.7759C167.468 42.0921 167.669 43.9941 167.669 45.3968C167.669 46.7448 167.482 48.353 168.199 49.5763C169.048 51.0247 169.311 52.0283 170.98 52.6815C172.213 53.1639 174.7 53.5323 175.881 52.755C178.533 51.01 180.154 49.3888 179.192 45.9266C178.626 43.8883 178.265 41.8257 178.265 39.7016C178.265 31.6648 177.945 22.9617 175.616 15.1988" stroke="black" stroke-width="3" stroke-linecap="round"/>
<path id="s" d="M257.734 27.119C258.432 27.119 256.274 27.1453 255.673 27.5017C254.506 28.1941 254.29 29.6506 254.29 30.8865C254.29 33.4444 260.097 34.3539 261.928 35.0512C262.724 35.3546 267.769 37.5592 265.798 39.1718C263.682 40.903 258.532 40.3649 256.144 39.5691" stroke="black" stroke-width="3" stroke-linecap="round"/>
<g id="r_2">
<path id="Vector 41" d="M211.642 27.6488C211.642 31.4759 212.989 34.9294 213.761 38.6273C214.181 40.641 214.552 42.6635 214.879 44.6904C214.98 45.3161 215.636 47.588 215.085 45.6617" stroke="black" stroke-width="3" stroke-linecap="round"/>
<path id="Vector 42" d="M212.701 34.801C212.701 32.2884 214.807 32.417 216.925 32.417C218.455 32.417 222.522 33.7806 223.297 35.3308" stroke="black" stroke-width="3" stroke-linecap="round"/>
</g>
<path id="Vector 43" d="M232.304 14.669C232.41 15.2541 232.845 15.7513 233.084 16.2878C233.532 17.2961 233.702 18.4055 234.04 19.4518C234.578 21.1139 235.235 22.6504 236.012 24.2052" stroke="black" stroke-width="3" stroke-linecap="round"/>
<path id="o" d="M195.483 34.2712C194.093 33.2604 192.652 34.6649 192.187 35.8606C191.546 37.5091 191.512 40.012 192.04 41.6883C192.683 43.7335 193.792 45.2842 195.601 46.4417C196.969 47.317 200.022 47.9872 201.576 47.2511C203.992 46.1065 204.874 44.0409 205.005 41.4234C205.166 38.2074 204.741 36.0254 202.37 33.7414C200.557 31.9944 192.569 28.7494 192.569 33.4765" stroke="black" stroke-width="3" stroke-linecap="round"/>
<path id="u" d="M138.862 44.5453C138.862 50.0722 139.552 56.6469 146.609 56.6469C151.266 56.6469 155.265 52.139 156.022 47.6828C156.394 45.4911 155.738 43.5082 154.997 41.4719C154.716 40.6988 154.321 42.1408 154.997 42.8165" stroke="black" stroke-width="3" stroke-linecap="round"/>
<g id="t">
<path id="Vector 36" d="M122.15 36.4776C122.15 44.5208 125.608 52.119 125.608 60.1045" stroke="black" stroke-width="3" stroke-linecap="round"/>
<path id="Vector 37" d="M105.438 32.4437C110.82 32.4437 115.873 32.9502 121.318 32.4437C127.941 31.8276 134.521 31.8675 141.167 31.8675" stroke="black" stroke-width="3" stroke-linecap="round"/>
</g>
</g>
</svg>
