<svg width="606" height="563" viewBox="0 0 606 563" fill="none" xmlns="http://www.w3.org/2000/svg">
<g id="second">
<path id="greenrightcircle" d="M515 495C558.63 495 594 459.407 594 415.5C594 371.593 558.63 336 515 336C471.369 336 436 371.593 436 415.5C436 459.407 471.369 495 515 495Z" fill="#43C07D"/>
<path id="Vector" d="M514 559L515 415" stroke="#3F3D56" stroke-width="2" stroke-miterlimit="10"/>
<path id="Vector_2" d="M515 435C526.046 435 535 425.822 535 414.5C535 403.178 526.046 394 515 394C503.954 394 495 403.178 495 414.5C495 425.822 503.954 435 515 435Z" fill="#3F3D56"/>
<path id="leafleft" d="M515 503C515 503 512.344 440.558 452 447.546Z" fill="#3F3D56"/>
<path id="greenleftcircle" d="M182.5 345C226.407 345 262 309.407 262 265.5C262 221.593 226.407 186 182.5 186C138.593 186 103 221.593 103 265.5C103 309.407 138.593 345 182.5 345Z" fill="#43C07D"/>
<path id="Vector_3" d="M178 559L182 265" stroke="#3F3D56" stroke-width="2" stroke-miterlimit="10"/>
<path id="Vector_4" d="M182.5 286C193.822 286 203 276.822 203 265.5C203 254.178 193.822 245 182.5 245C171.178 245 162 254.178 162 265.5C162 276.822 171.178 286 182.5 286Z" fill="#3F3D56"/>
<path id="leafleft_2" d="M181 348C181 348 179.056 286.183 119 292.446Z" fill="#3F3D56"/>
<path id="Vector_5" d="M177.791 553C177.791 553 192.809 432.991 117 426" stroke="#3F3D56" stroke-width="2" stroke-miterlimit="10"/>
<path id="Vector_6" d="M117 446C128.046 446 137 437.046 137 426C137 414.954 128.046 406 117 406C105.954 406 97 414.954 97 426C97 437.046 105.954 446 117 446Z" fill="#3F3D56"/>
<path id="greenmiddlecircle" d="M353 159C396.63 159 432 123.407 432 79.5C432 35.5934 396.63 0 353 0C309.369 0 274 35.5934 274 79.5C274 123.407 309.369 159 353 159Z" fill="#43C07D"/>
<path id="Vector_7" d="M353 560V79" stroke="#3F3D56" stroke-width="2" stroke-miterlimit="10"/>
<path id="Vector_8" d="M353 100C364.046 100 373 90.8218 373 79.5C373 68.1782 364.046 59 353 59C341.954 59 333 68.1782 333 79.5C333 90.8218 341.954 100 353 100Z" fill="#3F3D56"/>
<path id="Vector_9" d="M290.5 447C301.822 447 311 438.046 311 427C311 415.954 301.822 407 290.5 407C279.178 407 270 415.954 270 427C270 438.046 279.178 447 290.5 447Z" fill="#3F3D56"/>
<path id="leafleft_3" d="M353 183C353 183 350.07 120.302 290 127.589Z" fill="#3F3D56"/>
<path id="leafleft_4" d="M353 361C353 361 350.07 298.302 290 305.589Z" fill="#3F3D56"/>
<path id="Vector_10" d="M353.126 555C353.126 555 366.339 432.844 290 427" stroke="#3F3D56" stroke-width="2" stroke-miterlimit="10"/>
<path id="Vector_11" d="M417 256C428.046 256 437 246.822 437 235.5C437 224.178 428.046 215 417 215C405.954 215 397 224.178 397 235.5C397 246.822 405.954 256 417 256Z" fill="#3F3D56"/>
<path id="Vector_12" d="M353.874 357C353.874 357 340.661 241.821 417 236" stroke="#3F3D56" stroke-width="2" stroke-miterlimit="10"/>
<path id="Vector_13" d="M0 560C0 561.664 0.61219 563 1.37453 563H604.626C605.388 563 606 561.664 606 560C606 558.336 605.388 557 604.626 557H1.37453C0.61219 557 0 558.336 0 560V560Z" fill="#43C07D"/>
</g>
</svg>
