<svg width="606" height="394" viewBox="0 0 606 394" fill="none" xmlns="http://www.w3.org/2000/svg">
<g id="third">
<path id="Vector" d="M171.902 184.81L116.035 140.57C113.674 138.688 112.147 135.954 111.784 132.957C111.421 129.959 112.251 126.94 114.094 124.549C115.048 123.312 116.244 122.282 117.609 121.523C118.973 120.763 120.479 120.29 122.032 120.131C123.586 119.972 125.156 120.131 126.646 120.598C128.137 121.066 129.516 121.832 130.7 122.85L187.323 170.584L222.952 198.138C224.748 197.127 226.812 196.693 228.863 196.896C230.914 197.099 232.853 197.928 234.417 199.271C235.981 200.614 237.093 202.405 237.602 204.402C238.112 206.399 237.995 208.505 237.266 210.433C236.538 212.361 235.233 214.018 233.53 215.179C231.827 216.34 229.808 216.948 227.747 216.922C225.686 216.895 223.683 216.234 222.011 215.03C220.338 213.825 219.077 212.135 218.399 210.189L171.902 184.81Z" fill="#FFB6B6"/>
<path id="Vector_2" d="M123.354 154.718C122.618 154.819 121.87 154.675 121.223 154.31C120.577 153.944 120.068 153.376 119.776 152.693C119.399 151.858 118.77 151.161 117.978 150.7C117.824 150.613 117.664 150.535 117.5 150.469C116.5 150.092 115.606 149.48 114.894 148.684C114.181 147.888 113.671 146.932 113.407 145.897C112.588 142.478 109.96 139.161 107.319 136.602C104.429 133.803 101.344 131.118 99.2088 127.709C96.1282 122.79 95.2638 115.887 101.208 111.783C103.763 110.077 106.828 109.304 109.887 109.594C116.29 110.115 121.585 114.022 126.615 117.808L125.356 115.337C130.777 119.568 136.998 122.661 143.644 124.429C142.494 125.475 143.491 127.565 144.967 128.052C146.443 128.538 148.034 128.026 149.555 127.703C151.471 127.296 153.84 127.331 154.596 129.619C154.761 130.171 154.811 130.752 154.741 131.324C154.671 131.897 154.484 132.448 154.191 132.945C148.852 142.445 141.605 150.739 132.907 157.304C130.975 158.761 128.731 160.195 126.327 159.91C123.924 159.625 121.879 156.637 123.354 154.718Z" fill="#43C07D"/>
<path id="Vector_3" d="M79.0659 216.472L73.851 191.335L128.661 174.07L121.28 231.933L79.0659 216.472Z" fill="#FFB6B6"/>
<path id="Vector_4" d="M127.142 194L74.3192 216.781C74.3192 216.781 67.5294 216.482 67.5294 212.38C67.5294 208.278 71.3247 207.419 66.3504 204.259C61.376 201.099 59.3249 203.15 60.3505 198.022C61.376 192.895 62.4016 191.199 62.4016 189.996C62.4016 188.792 61.3761 183.665 61.3761 178.537C61.3761 176.051 69.3625 171.537 67.3756 156.969C64.9549 139.22 65.8041 112.058 82.9126 106.748L95.2192 85.2119H118.678L125.986 106.748L134.648 118.101C134.648 118.101 151.735 139.708 146.608 150.989C141.48 162.27 127.142 194 127.142 194Z" fill="#2F2E41"/>
<path id="Vector_5" d="M231.518 228.158C231.426 209.85 228.393 191.675 222.535 174.33C220.853 169.353 218.942 164.463 216.801 159.661C216.016 157.896 213.319 159.211 214.105 160.977C221.381 177.347 225.987 194.777 227.745 212.605C228.248 217.7 228.508 222.81 228.527 227.933C228.537 229.85 231.528 230.092 231.518 228.158Z" fill="#3F3D56"/>
<path id="Vector_6" d="M216.49 157.334L218.186 162.364C203.78 160.927 202.052 142.79 192.566 131.859C183.073 120.94 165.93 117.336 166.523 102.875C166.612 100.784 166.942 98.4426 168.584 97.1367C170.637 95.522 173.638 96.3175 176.049 97.3184C178.595 98.3837 181.066 99.6216 183.443 101.023C184.194 103.024 184.944 105.025 185.691 107.026C185.944 107.712 186.386 108.313 186.965 108.759C187.545 109.205 188.239 109.478 188.967 109.547C189.695 109.616 190.428 109.477 191.081 109.147C191.733 108.818 192.28 108.31 192.656 107.683L192.693 107.619C221.387 107.576 224.676 131.143 216.49 157.334Z" fill="#43C07D"/>
<path id="Vector_7" d="M217.251 163.029C210.202 165.818 204.251 159.876 197.211 157.07C190.162 154.254 182.093 154.611 178.89 147.731C178.602 147.261 178.417 146.736 178.346 146.19C178.275 145.644 178.319 145.089 178.476 144.561C179.041 143.31 180.631 142.968 181.994 142.85C183.893 142.699 185.801 142.718 187.696 142.907C188.155 143.734 188.604 144.57 189.062 145.407C189.839 146.819 190.605 148.23 191.381 149.643C192.785 148.07 193.937 146.289 194.797 144.364C207.78 138.937 213.439 148.583 215.251 161.093L217.251 163.029Z" fill="#43C07D"/>
<path id="Vector_8" d="M215.297 162.882C221.849 166.694 228.622 161.707 236.002 159.985C243.392 158.254 251.318 159.813 255.513 153.489C255.868 153.067 256.129 152.576 256.281 152.047C256.433 151.517 256.473 150.962 256.396 150.417C256.024 149.095 254.503 148.52 253.173 148.199C251.319 147.766 249.429 147.5 247.527 147.404C246.949 148.152 246.381 148.912 245.802 149.671C244.824 150.951 243.855 152.232 242.876 153.512C241.723 151.747 240.85 149.814 240.288 147.782C228.262 140.477 221.225 149.168 217.564 161.267L215.297 162.882Z" fill="#43C07D"/>
<path id="Vector_9" d="M215.425 163.144C222.525 160.488 222.956 152.088 226.298 145.287C229.639 138.472 235.865 133.325 233.629 126.074C233.527 125.532 233.312 125.019 232.999 124.566C232.685 124.113 232.28 123.731 231.81 123.444C230.552 122.895 229.143 123.708 228.053 124.534C226.543 125.695 225.14 126.989 223.861 128.399C224.074 129.321 224.302 130.242 224.523 131.17C224.894 132.738 225.271 134.299 225.642 135.867C223.546 135.642 221.497 135.093 219.569 134.241C206.298 138.92 208.567 149.871 215.611 160.367L215.425 163.144Z" fill="#43C07D"/>
<path id="Vector_10" d="M97.1481 63.5059C114.391 76.6224 133.593 87.0614 137.212 101.496C137.212 101.496 135.044 78.816 145.158 83.1149C162.151 90.3381 156.402 51.0559 151.636 44.6324C143.694 33.9267 116.912 27.8435 116.912 27.8435L97.9136 38.273L97.1481 63.5059Z" fill="#2F2E41"/>
<path id="Vector_11" d="M127.173 79.4229C143.619 79.4229 156.952 66.0904 156.952 49.644C156.952 33.1975 143.619 19.8651 127.173 19.8651C110.726 19.8651 97.3937 33.1975 97.3937 49.644C97.3937 66.0904 110.726 79.4229 127.173 79.4229Z" fill="#FFB6B6"/>
<path id="Vector_12" d="M116.448 38.2498L115.302 43.283L135.334 47.8433C135.352 46.8254 135.58 45.8221 136.004 44.8965C136.427 43.9708 137.038 43.1428 137.797 42.4643C137.365 44.4378 137.414 46.4864 137.941 48.4368C148.744 54.4989 148.123 56.6466 156.855 55.1007C158.038 55.37 159.279 55.1584 160.306 54.5123C161.333 53.8663 162.061 52.8388 162.33 51.6559C165.843 36.2246 166.998 20.4527 151.642 16.6224C147.909 15.6891 144.028 15.5104 140.226 16.0968C136.423 16.6832 132.776 18.0229 129.498 20.0373C126.22 22.0516 123.377 24.7002 121.137 27.8276C118.896 30.955 117.302 34.4984 116.448 38.2499L116.448 38.2498Z" fill="#2F2E41"/>
<path id="Vector_13" d="M121.348 58.3306C122.328 54.032 124.251 50.0046 126.977 46.539C129.703 43.0734 133.164 40.256 137.11 38.2901C141.057 36.3241 145.391 35.2587 149.799 35.1706C154.207 35.0825 158.58 35.974 162.602 37.7807C161.209 33.6689 158.389 30.1919 154.654 27.9794L132.106 18.1901C120.984 15.6582 103.378 8.47177 95.3445 15.3537C87.943 21.6757 91.5454 34.0509 84.7298 40.9817C77.2605 48.5771 76.626 57.5582 78.7443 62.7238C81.1949 68.6999 86.0974 76.8531 92.2155 78.6178C92.5339 76.5146 93.5831 74.5909 95.1787 73.1843C94.7377 75.1886 94.6993 77.2606 95.0658 79.28L132.106 108.822C128.647 105.813 125.699 98.0599 123.669 89.3278C122.468 84.1591 115.299 82.3451 121.113 73.5728C126.927 64.8006 120.558 61.7986 121.348 58.3306Z" fill="#2F2E41"/>
<path id="Vector_14" d="M91.6807 25.3806L91.7847 25.5885C91.9117 25.8655 92.0387 26.1426 92.1426 26.4313L92.1541 26.4428C92.7199 26.6506 93.3549 26.3158 93.9783 25.7847C93.8811 27.0333 93.8117 28.2415 93.7598 29.4256L113.479 21.7091C110.05 22.3011 109.543 10.0999 107.083 12.4379C106.944 12.5649 106.817 12.6919 106.69 12.8189C106.996 12.0832 107.206 11.3109 107.314 10.5213C107.419 9.53028 107.341 8.52833 107.083 7.56564C107.078 7.56108 107.075 7.55561 107.073 7.54962C107.071 7.54362 107.07 7.53725 107.071 7.53097C106.826 6.66047 106.444 5.83434 105.94 5.08328C105.213 3.99099 104.294 3.04025 103.226 2.27769C101.865 1.23714 100.277 0.531855 98.5923 0.218943C96.9074 -0.0939688 95.1725 -0.00571644 93.528 0.476557C89.7614 1.90149 86.6478 4.65775 84.7764 8.22369C83.2177 11.0294 82.0285 14.1813 82.271 17.3794C82.3416 18.2272 82.5241 19.0619 82.8137 19.8617C83.1738 20.9851 83.7882 22.0103 84.6093 22.8574C85.4303 23.7044 86.4358 24.3506 87.5474 24.7456C87.8245 24.8379 88.1478 24.9419 88.4941 25.0689C88.6788 23.5665 88.6905 22.0479 88.5288 20.543C89.8125 21.991 90.8747 23.6213 91.6807 25.3806Z" fill="#2F2E41"/>
<path id="Vector_15" d="M110.777 20.9241C110.752 21.5681 110.674 22.209 110.546 22.8406C110.537 22.9224 110.521 23.0034 110.5 23.0831C109.692 26.6738 105.316 19.2038 101.933 21.7092C99.324 23.6373 97.8808 24.0414 95.0059 25.1729C94.9019 24.8842 93.9783 25.4499 93.8513 25.1729C93.8166 25.1036 93.886 24.0876 93.8513 24.0183C96.6569 22.8983 97.1188 22.4019 99.6242 20.5546C102.799 18.2108 102.349 20.4045 103.088 17.0909C103.942 13.2693 108.976 14.9087 106.39 13.096L106.69 12.6804C108.527 13.9487 109.881 15.7996 110.535 17.9337C110.534 17.94 110.535 17.9463 110.537 17.9523C110.539 17.9583 110.542 17.9638 110.546 17.9684C110.74 18.941 110.817 19.9332 110.777 20.9241Z" fill="#43C07D"/>
<g id="firstpot">
<path id="Vector_16" d="M423.486 369.984C423.346 370.047 401.798 370.048 401.939 370.11C394.196 357.285 391.194 346.445 390.201 338.511C389.983 336.695 390.152 334.852 390.697 333.106C391.242 331.359 392.15 329.747 393.362 328.377C394.574 327.006 396.063 325.908 397.729 325.153C399.396 324.399 401.204 324.006 403.034 324L422.538 323.886C424.244 323.875 425.935 324.199 427.515 324.841C429.096 325.483 430.534 326.431 431.748 327.629C432.962 328.827 433.928 330.253 434.591 331.825C435.254 333.396 435.601 335.083 435.612 336.789C435.655 346.431 433.499 359.648 423.486 369.984Z" fill="#43C07D"/>
<path id="Vector_17" d="M412.352 325.53C413.407 316.969 412.981 308.289 411.094 299.872C410.779 298.459 408.609 299.057 408.925 300.47C410.751 308.694 411.15 317.171 410.102 325.53C409.924 326.964 412.175 326.951 412.352 325.53Z" fill="#3F3D56"/>
<path id="Vector_18" d="M415.364 326.09C415.871 318.951 417.656 311.961 420.635 305.453C421.234 304.146 419.295 303.001 418.692 304.317C415.539 311.181 413.65 318.556 413.114 326.09C413.012 327.535 415.262 327.529 415.364 326.09Z" fill="#3F3D56"/>
<path id="Vector_19" d="M409.069 325.86C408.415 317.866 406.126 310.092 402.344 303.02C401.66 301.743 399.717 302.878 400.401 304.155C404.001 310.876 406.186 318.263 406.819 325.86C406.937 327.293 409.188 327.306 409.069 325.86Z" fill="#3F3D56"/>
<path id="Vector_20" d="M401.541 302.273C400.257 301.805 400.113 299.848 399.814 298.722C399.609 297.858 399.279 297.029 398.833 296.261C398.322 295.495 397.739 294.781 397.092 294.126C396.562 293.641 396.131 293.057 395.825 292.407C395.731 292.158 395.704 291.888 395.749 291.625C395.792 291.512 395.823 291.395 395.843 291.276L395.86 291.238C395.93 291.1 395.824 291.12 395.539 291.298C395.54 291.315 396.083 291.616 396.141 291.659C397.694 292.875 398.883 294.496 399.575 296.344C400.267 298.191 400.436 300.194 400.063 302.131C399.772 303.545 401.94 304.149 402.233 302.73C402.723 300.314 402.517 297.809 401.64 295.505C400.762 293.201 399.249 291.194 397.276 289.716C396.767 289.295 396.125 289.066 395.463 289.07C395.067 289.113 394.693 289.272 394.386 289.526C394.079 289.78 393.854 290.119 393.739 290.501C393.547 291.016 393.465 291.567 393.5 292.116C393.535 292.665 393.685 293.201 393.941 293.688C394.876 295.551 396.811 296.621 397.458 298.671C398.177 300.947 398.372 303.505 400.943 304.443C401.231 304.519 401.537 304.48 401.796 304.333C402.054 304.186 402.245 303.943 402.327 303.657C402.4 303.37 402.359 303.065 402.212 302.807C402.066 302.549 401.825 302.358 401.541 302.273Z" fill="#3F3D56"/>
<path id="Vector_21" d="M410.561 299.267C409.227 298.783 409.098 296.973 408.738 295.808C408.075 294.069 407.085 292.473 405.822 291.106C405.312 290.555 404.95 289.886 404.766 289.159C404.746 289.019 404.742 288.877 404.756 288.737C404.77 288.602 404.882 288.393 404.863 288.27L404.88 288.231C404.95 288.094 404.844 288.114 404.56 288.291C404.625 288.315 404.689 288.344 404.75 288.376C404.92 288.521 405.135 288.63 405.312 288.771C406.739 289.92 407.842 291.421 408.511 293.126C409.276 295.029 409.475 297.112 409.083 299.125C408.792 300.538 410.96 301.142 411.253 299.723C411.732 297.363 411.547 294.917 410.719 292.655C409.891 290.394 408.453 288.406 406.564 286.913C406.108 286.513 405.56 286.231 404.969 286.093C404.575 286.024 404.168 286.08 403.807 286.252C403.446 286.425 403.147 286.706 402.954 287.057C402.687 287.564 402.533 288.123 402.504 288.696C402.474 289.268 402.57 289.84 402.783 290.372C403.579 292.415 405.548 293.712 406.343 295.744C406.763 296.819 406.938 297.971 407.396 299.034C407.628 299.595 407.976 300.099 408.419 300.513C408.862 300.928 409.388 301.242 409.963 301.436C411.326 301.931 411.914 299.757 410.561 299.267H410.561Z" fill="#3F3D56"/>
<path id="Vector_22" d="M420.572 304.373C419.703 302.768 420.918 300.862 421.422 299.322C421.965 297.664 421.883 295.931 422.271 294.25C422.378 293.564 422.724 292.939 423.249 292.486C423.392 292.378 423.844 292.256 423.488 292.205C423.227 292.168 423.354 292.212 423.424 292.463C423.527 292.846 423.598 293.237 423.635 293.633C423.806 295.369 423.56 297.121 422.918 298.743C422.232 300.51 421.076 302.055 419.575 303.212C419.325 303.368 419.143 303.615 419.068 303.901C418.993 304.187 419.03 304.491 419.172 304.751C419.324 305.007 419.57 305.193 419.858 305.268C420.146 305.344 420.453 305.303 420.711 305.154C422.531 303.788 423.962 301.968 424.862 299.877C425.761 297.786 426.098 295.496 425.838 293.235C425.693 292.103 425.484 290.591 424.243 290.147C423.027 289.713 421.793 290.594 421.072 291.523C419.726 293.257 419.976 295.516 419.567 297.551C419.018 300.28 417.124 302.726 418.629 305.509C419.318 306.783 421.261 305.648 420.572 304.373Z" fill="#3F3D56"/>
<path id="Vector_23" d="M411.051 291.344C410.118 289.634 411.037 287.715 411.501 286C411.786 284.3 412.166 282.617 412.641 280.96C412.864 280.337 413.271 279.796 413.806 279.407C413.913 279.339 414.025 279.278 414.14 279.226C414.128 279.15 413.799 279.178 413.81 279.153C413.841 279.311 413.887 279.467 413.946 279.617C414.037 280.007 414.098 280.404 414.132 280.803C414.264 282.475 414.012 284.154 413.396 285.714C412.711 287.481 411.555 289.026 410.054 290.182C409.803 290.339 409.622 290.586 409.547 290.872C409.472 291.158 409.509 291.462 409.65 291.722C409.802 291.978 410.049 292.164 410.337 292.239C410.625 292.315 410.932 292.274 411.19 292.125C412.997 290.77 414.422 288.967 415.323 286.895C416.224 284.823 416.571 282.552 416.329 280.305C416.198 279.232 416.039 277.827 414.99 277.232C413.84 276.579 412.52 277.395 411.727 278.244C410.204 279.877 410.025 282.149 409.607 284.233C409.045 287.033 407.599 289.713 409.108 292.48C409.801 293.751 411.745 292.617 411.051 291.344V291.344Z" fill="#3F3D56"/>
<path id="Vector_24" d="M417.775 312.837C418.583 311.522 420.223 311.39 421.612 311.143C422.481 311.002 423.335 310.783 424.164 310.487C425.065 310.151 425.931 309.727 426.84 309.414C427.599 309.075 428.45 309 429.257 309.201C429.302 309.217 429.81 309.496 429.83 309.486C429.902 309.447 429.707 309.19 429.724 309.19C429.713 309.19 429.634 309.306 429.617 309.318C429.274 309.554 428.988 309.896 428.645 310.144C427.24 311.152 425.615 311.811 423.905 312.066C422.01 312.361 420.07 312.129 418.299 311.393C418.039 311.252 417.735 311.216 417.449 311.291C417.163 311.366 416.917 311.547 416.759 311.797C416.611 312.055 416.57 312.361 416.646 312.649C416.721 312.937 416.907 313.184 417.163 313.336C419.309 314.261 421.664 314.593 423.983 314.298C426.301 314.004 428.498 313.093 430.345 311.66C431.261 310.939 432.278 309.976 431.893 308.69C431.536 307.499 430.047 306.972 428.936 306.854C426.514 306.596 424.382 308.237 422.102 308.759C419.722 309.304 417.248 309.398 415.832 311.702C415.072 312.939 417.017 314.07 417.775 312.837H417.775Z" fill="#3F3D56"/>
<path id="Vector_25" d="M411.867 299.151C410.992 297.114 410.893 294.826 411.59 292.721C412.288 290.616 413.733 288.84 415.651 287.729C415.738 287.679 415.826 287.63 415.915 287.583C416.08 287.555 416.105 287.517 415.99 287.468C416.174 286.849 415.919 287.335 415.851 287.492C415.647 287.968 415.44 288.443 415.23 288.916C414.761 289.974 414.279 291.026 413.785 292.073C412.767 294.23 411.703 296.367 410.538 298.449C409.83 299.714 411.773 300.85 412.481 299.585C413.609 297.569 414.642 295.501 415.631 293.413C416.115 292.392 416.587 291.366 417.047 290.334C417.249 289.88 417.449 289.426 417.646 288.971C417.922 288.484 418.11 287.953 418.2 287.401C418.2 287.1 418.136 286.802 418.014 286.528C417.891 286.253 417.712 286.008 417.488 285.807C417.264 285.606 417 285.455 416.714 285.363C416.427 285.271 416.125 285.24 415.826 285.272C414.719 285.56 413.706 286.131 412.886 286.929C411.23 288.312 410.006 290.143 409.362 292.202C408.56 294.876 408.761 297.75 409.924 300.286C410.076 300.543 410.323 300.729 410.611 300.804C410.899 300.88 411.205 300.839 411.464 300.69C411.716 300.535 411.898 300.288 411.973 300.001C412.049 299.715 412.011 299.41 411.867 299.151L411.867 299.151Z" fill="#3F3D56"/>
<path id="Vector_26" d="M403.82 310.18C402.205 310.905 400.233 309.522 398.786 308.928C397.168 308.265 395.438 308.2 393.788 307.672C393.168 307.503 392.625 307.124 392.252 306.6C392.202 306.494 392.143 306.392 392.076 306.295C392.133 306.308 391.834 306.493 391.963 306.467C392.078 306.443 392.193 306.415 392.309 306.395C392.726 306.328 393.148 306.293 393.571 306.292C395.376 306.267 397.158 306.696 398.753 307.54C400.349 308.384 401.706 309.616 402.701 311.122C403.481 312.336 405.43 311.209 404.643 309.987C403.402 308.074 401.681 306.521 399.651 305.481C397.622 304.441 395.356 303.952 393.078 304.062C391.951 304.134 390.571 304.259 389.992 305.386C389.4 306.537 390.262 307.945 391.121 308.711C392.769 310.182 395.045 310.103 397.052 310.691C398.391 311.084 399.597 311.813 400.914 312.265C402.227 312.754 403.68 312.703 404.956 312.123C405.212 311.971 405.398 311.724 405.473 311.436C405.549 311.148 405.508 310.842 405.359 310.584C405.204 310.332 404.957 310.149 404.671 310.074C404.384 309.999 404.079 310.037 403.82 310.18V310.18Z" fill="#3F3D56"/>
</g>
<g id="thirdpot">
<path id="Vector_27" d="M575.273 369.531C575.132 369.594 553.584 369.594 553.725 369.656C545.982 356.831 542.981 345.991 541.987 338.058C541.769 336.241 541.938 334.399 542.483 332.652C543.028 330.906 543.936 329.294 545.148 327.923C546.36 326.553 547.849 325.454 549.516 324.7C551.183 323.946 552.99 323.553 554.82 323.547L574.324 323.433C576.03 323.421 577.721 323.746 579.302 324.388C580.882 325.03 582.32 325.977 583.535 327.176C584.749 328.374 585.715 329.799 586.378 331.371C587.041 332.943 587.387 334.63 587.398 336.336C587.442 345.977 585.285 359.195 575.273 369.531Z" fill="#43C07D"/>
<path id="Vector_28" d="M564.138 325.077C565.193 316.515 564.768 307.836 562.88 299.418C562.565 298.006 560.396 298.604 560.711 300.017C562.538 308.241 562.936 316.718 561.888 325.077C561.71 326.51 563.962 326.497 564.138 325.077Z" fill="#3F3D56"/>
<path id="Vector_29" d="M567.151 325.637C567.658 318.498 569.443 311.508 572.421 305C573.02 303.693 571.082 302.548 570.478 303.864C567.326 310.727 565.436 318.103 564.901 325.637C564.798 327.082 567.049 327.075 567.151 325.637Z" fill="#3F3D56"/>
<path id="Vector_30" d="M560.855 325.407C560.202 317.413 557.913 309.639 554.13 302.566C553.447 301.289 551.504 302.424 552.188 303.702C555.788 310.422 557.972 317.809 558.605 325.407C558.724 326.84 560.975 326.852 560.855 325.407Z" fill="#3F3D56"/>
<path id="Vector_31" d="M553.327 301.82C552.044 301.352 551.899 299.394 551.6 298.269C551.395 297.405 551.065 296.576 550.62 295.807C550.109 295.042 549.526 294.327 548.878 293.673C548.348 293.187 547.918 292.603 547.611 291.953C547.517 291.704 547.491 291.434 547.536 291.172C547.578 291.059 547.609 290.942 547.63 290.823L547.646 290.784C547.717 290.647 547.61 290.667 547.326 290.845C547.326 290.862 547.87 291.163 547.927 291.206C549.481 292.422 550.669 294.043 551.361 295.89C552.053 297.738 552.222 299.74 551.85 301.678C551.558 303.091 553.727 303.696 554.019 302.276C554.509 299.86 554.303 297.355 553.426 295.052C552.549 292.748 551.036 290.741 549.063 289.263C548.553 288.841 547.911 288.613 547.25 288.617C546.854 288.66 546.479 288.818 546.172 289.073C545.866 289.327 545.641 289.666 545.525 290.047C545.333 290.563 545.252 291.113 545.287 291.662C545.321 292.212 545.472 292.747 545.727 293.235C546.662 295.098 548.598 296.167 549.245 298.218C549.963 300.494 550.159 303.052 552.729 303.989C553.017 304.066 553.323 304.027 553.582 303.88C553.841 303.733 554.032 303.49 554.113 303.204C554.186 302.916 554.145 302.612 553.999 302.354C553.852 302.096 553.612 301.904 553.327 301.82Z" fill="#3F3D56"/>
<path id="Vector_32" d="M562.348 298.813C561.014 298.329 560.885 296.52 560.525 295.355C559.861 293.616 558.871 292.019 557.608 290.652C557.099 290.102 556.736 289.432 556.553 288.705C556.532 288.565 556.528 288.424 556.542 288.283C556.556 288.148 556.669 287.939 556.65 287.816L556.666 287.778C556.737 287.64 556.63 287.66 556.346 287.838C556.411 287.862 556.475 287.89 556.537 287.923C556.707 288.068 556.921 288.176 557.099 288.318C558.526 289.466 559.629 290.967 560.298 292.673C561.063 294.575 561.262 296.659 560.87 298.671C560.579 300.085 562.747 300.689 563.04 299.269C563.518 296.91 563.334 294.463 562.506 292.202C561.678 289.941 560.239 287.953 558.35 286.46C557.894 286.059 557.347 285.777 556.756 285.639C556.361 285.57 555.955 285.626 555.594 285.799C555.232 285.972 554.934 286.253 554.74 286.603C554.473 287.111 554.32 287.67 554.29 288.242C554.261 288.815 554.356 289.387 554.57 289.918C555.366 291.961 557.335 293.259 558.129 295.29C558.55 296.366 558.724 297.518 559.183 298.581C559.414 299.141 559.763 299.646 560.206 300.06C560.649 300.474 561.175 300.789 561.75 300.983C563.113 301.477 563.701 299.304 562.348 298.813L562.348 298.813Z" fill="#3F3D56"/>
<path id="Vector_33" d="M572.358 303.92C571.49 302.314 572.704 300.409 573.208 298.869C573.751 297.211 573.669 295.478 574.057 293.796C574.164 293.111 574.511 292.486 575.035 292.033C575.178 291.925 575.631 291.802 575.274 291.752C575.013 291.715 575.14 291.759 575.21 292.01C575.313 292.393 575.384 292.784 575.421 293.179C575.592 294.915 575.346 296.667 574.704 298.29C574.018 300.056 572.862 301.601 571.362 302.758C571.111 302.915 570.93 303.162 570.855 303.448C570.78 303.734 570.817 304.037 570.958 304.297C571.11 304.553 571.357 304.739 571.645 304.815C571.933 304.89 572.239 304.849 572.497 304.701C574.318 303.334 575.749 301.515 576.648 299.424C577.548 297.333 577.884 295.043 577.624 292.781C577.479 291.65 577.271 290.137 576.029 289.694C574.813 289.26 573.579 290.141 572.858 291.069C571.513 292.803 571.762 295.063 571.353 297.098C570.804 299.827 568.911 302.273 570.415 305.055C571.104 306.329 573.048 305.195 572.358 303.92Z" fill="#3F3D56"/>
<path id="Vector_34" d="M562.837 290.891C561.904 289.181 562.824 287.262 563.288 285.546C563.572 283.846 563.953 282.163 564.427 280.506C564.651 279.883 565.057 279.342 565.592 278.953C565.699 278.885 565.811 278.825 565.926 278.772C565.915 278.696 565.585 278.725 565.597 278.699C565.628 278.858 565.673 279.013 565.733 279.163C565.823 279.554 565.885 279.95 565.918 280.35C566.05 282.021 565.799 283.701 565.183 285.261C564.497 287.027 563.341 288.572 561.84 289.729C561.59 289.886 561.408 290.133 561.333 290.419C561.258 290.705 561.295 291.009 561.437 291.268C561.589 291.524 561.836 291.71 562.124 291.786C562.412 291.861 562.718 291.82 562.976 291.672C564.784 290.316 566.208 288.514 567.109 286.441C568.01 284.369 568.357 282.098 568.116 279.852C567.984 278.779 567.825 277.373 566.777 276.778C565.626 276.126 564.306 276.942 563.514 277.791C561.99 279.423 561.811 281.696 561.393 283.78C560.832 286.58 559.385 289.26 560.894 292.026C561.588 293.298 563.531 292.164 562.837 290.891Z" fill="#3F3D56"/>
<path id="Vector_35" d="M569.561 312.384C570.37 311.069 572.009 310.937 573.398 310.69C574.267 310.549 575.121 310.329 575.951 310.034C576.851 309.698 577.717 309.274 578.627 308.961C579.386 308.621 580.236 308.546 581.043 308.748C581.089 308.763 581.597 309.043 581.616 309.032C581.689 308.994 581.493 308.736 581.51 308.736C581.5 308.736 581.421 308.852 581.404 308.864C581.06 309.101 580.774 309.443 580.432 309.691C579.027 310.699 577.401 311.357 575.691 311.612C573.796 311.908 571.856 311.675 570.085 310.94C569.825 310.799 569.522 310.762 569.236 310.837C568.95 310.912 568.703 311.093 568.546 311.344C568.397 311.602 568.356 311.908 568.432 312.196C568.507 312.484 568.693 312.731 568.949 312.883C571.096 313.807 573.451 314.14 575.769 313.845C578.087 313.55 580.284 312.639 582.131 311.207C583.048 310.485 584.064 309.523 583.679 308.237C583.322 307.045 581.833 306.519 580.722 306.401C578.3 306.142 576.168 307.783 573.888 308.305C571.508 308.85 569.035 308.945 567.618 311.248C566.858 312.485 568.803 313.617 569.561 312.384L569.561 312.384Z" fill="#3F3D56"/>
<path id="Vector_36" d="M563.654 298.697C562.778 296.66 562.68 294.373 563.377 292.268C564.074 290.163 565.519 288.387 567.438 287.276C567.525 287.225 567.613 287.177 567.701 287.13C567.867 287.102 567.892 287.064 567.777 287.015C567.96 286.396 567.705 286.882 567.638 287.039C567.434 287.515 567.226 287.99 567.016 288.463C566.547 289.521 566.066 290.573 565.572 291.619C564.554 293.776 563.489 295.914 562.325 297.996C561.617 299.261 563.56 300.396 564.267 299.131C565.395 297.115 566.429 295.047 567.418 292.96C567.901 291.939 568.374 290.912 568.834 289.88C569.036 289.427 569.236 288.973 569.433 288.517C569.709 288.031 569.897 287.499 569.987 286.947C569.987 286.646 569.923 286.349 569.8 286.075C569.677 285.8 569.498 285.554 569.274 285.354C569.05 285.153 568.786 285.002 568.5 284.909C568.214 284.817 567.911 284.787 567.612 284.819C566.505 285.106 565.492 285.678 564.673 286.476C563.017 287.859 561.793 289.689 561.148 291.749C560.347 294.422 560.547 297.296 561.711 299.833C561.863 300.089 562.11 300.275 562.398 300.351C562.686 300.426 562.992 300.385 563.25 300.237C563.502 300.081 563.685 299.834 563.76 299.548C563.835 299.261 563.797 298.957 563.654 298.697Z" fill="#3F3D56"/>
<path id="Vector_37" d="M555.606 309.727C553.991 310.452 552.02 309.069 550.573 308.475C548.955 307.811 547.224 307.747 545.575 307.218C544.954 307.05 544.411 306.671 544.039 306.147C543.988 306.04 543.929 305.938 543.862 305.841C543.919 305.855 543.62 306.04 543.749 306.014C543.864 305.99 543.979 305.962 544.095 305.941C544.513 305.874 544.935 305.84 545.357 305.839C547.162 305.813 548.944 306.243 550.54 307.087C552.135 307.931 553.493 309.163 554.487 310.669C555.268 311.883 557.216 310.756 556.43 309.533C555.188 307.621 553.467 306.067 551.438 305.028C549.409 303.988 547.142 303.499 544.865 303.608C543.737 303.68 542.357 303.805 541.778 304.932C541.187 306.083 542.049 307.492 542.907 308.258C544.555 309.728 546.832 309.65 548.839 310.238C550.178 310.631 551.383 311.359 552.7 311.812C554.013 312.3 555.467 312.249 556.742 311.67C556.998 311.518 557.184 311.271 557.259 310.983C557.335 310.695 557.294 310.389 557.146 310.131C556.99 309.878 556.744 309.696 556.457 309.62C556.17 309.545 555.866 309.583 555.606 309.727V309.727Z" fill="#3F3D56"/>
</g>
<g id="secondpot">
<path id="Vector_38" d="M498.517 369.649H476.969L467.169 318.867C467.02 318.095 467.044 317.3 467.238 316.538C467.433 315.776 467.793 315.067 468.293 314.461C468.794 313.854 469.422 313.366 470.133 313.031C470.844 312.696 471.621 312.522 472.407 312.522H503.08C503.866 312.522 504.643 312.696 505.354 313.031C506.065 313.366 506.693 313.854 507.194 314.461C507.694 315.067 508.054 315.776 508.249 316.538C508.443 317.3 508.466 318.095 508.317 318.867L498.517 369.649Z" fill="#43C07D"/>
<path id="Vector_39" d="M486.667 316.048C492.672 296.149 491.032 274.725 482.068 255.972C481.446 254.665 479.505 255.806 480.126 257.108C486.783 271.213 489.274 286.927 487.305 302.4C486.734 306.821 485.795 311.186 484.498 315.45C484.43 315.734 484.476 316.033 484.624 316.284C484.773 316.535 485.013 316.719 485.294 316.796C485.575 316.874 485.875 316.839 486.132 316.7C486.388 316.56 486.58 316.327 486.667 316.048Z" fill="#3F3D56"/>
<path id="Vector_40" d="M490.198 290.883L506.335 269.575L504.239 269.008C504.528 276.259 503.437 283.499 501.023 290.343C498.936 296.237 495.333 303.927 488.08 304.163C486.636 304.211 486.629 306.461 488.08 306.413C495.797 306.161 500.047 299.073 502.552 292.659C505.472 285.129 506.811 277.078 506.489 269.008C506.481 268.765 506.395 268.531 506.244 268.34C506.093 268.149 505.885 268.012 505.651 267.949C505.416 267.885 505.167 267.898 504.94 267.987C504.714 268.075 504.522 268.234 504.392 268.44L488.255 289.747C487.381 290.901 489.334 292.024 490.198 290.883V290.883Z" fill="#3F3D56"/>
<path id="Vector_41" d="M489.363 281.721L479.803 267.727C479.687 267.543 479.52 267.395 479.322 267.303C479.125 267.21 478.905 267.176 478.689 267.204C478.473 267.232 478.269 267.322 478.102 267.462C477.935 267.603 477.812 267.788 477.747 267.996C475.739 273.258 475.665 279.062 477.54 284.373C479.414 289.684 483.114 294.156 487.98 296.992C488.237 297.131 488.538 297.164 488.819 297.085C489.1 297.007 489.339 296.822 489.487 296.57C489.634 296.318 489.678 296.018 489.608 295.735C489.539 295.451 489.363 295.205 489.116 295.049C484.678 292.463 481.312 288.374 479.625 283.523C477.938 278.671 478.041 273.376 479.916 268.594L477.86 268.863L487.42 282.857C488.232 284.045 490.183 282.921 489.363 281.721H489.363Z" fill="#3F3D56"/>
<path id="Vector_42" d="M480.943 255.196C478.731 255.087 476.43 254.951 474.579 253.596C473.879 253.079 473.283 252.435 472.822 251.697C472.594 251.344 472.4 250.971 472.242 250.581C472.077 250.209 471.977 249.811 471.947 249.405C471.947 249.513 472.054 249.318 471.951 249.404L471.789 249.532C471.731 249.61 471.646 249.664 471.551 249.684C471.456 249.703 471.356 249.687 471.272 249.638C471.097 249.66 471.218 249.366 471.186 249.89C471.089 250.451 471.086 251.024 471.179 251.586C471.243 251.859 471.364 252.115 471.532 252.338C471.701 252.562 471.914 252.748 472.159 252.884C472.404 253.02 472.674 253.104 472.953 253.13C473.232 253.156 473.513 253.124 473.778 253.035C474.155 252.894 474.52 252.722 474.868 252.522L474.969 252.47C475.093 252.412 475.104 252.407 475 252.457C475.086 252.312 475.135 252.596 474.992 252.433L475.087 252.432L474.972 252.425C474.91 252.413 474.851 252.387 474.8 252.349C474.749 252.311 474.707 252.262 474.678 252.206C474.641 252.094 474.635 252.077 474.66 252.157C474.695 252.206 474.697 252.43 474.679 252.212C474.685 252.285 474.685 252.359 474.686 252.432C474.687 252.62 474.675 252.807 474.675 252.995C474.651 253.462 474.753 253.927 474.97 254.341C475.141 254.621 475.384 254.848 475.675 255C475.965 255.152 476.291 255.222 476.618 255.203C477.353 255.169 477.769 254.656 478.389 254.377C478.526 254.307 478.682 254.285 478.833 254.314C478.985 254.343 479.122 254.422 479.223 254.538C479.304 254.64 479.355 254.763 479.37 254.892C479.386 255.022 479.366 255.153 479.313 255.272C479.169 255.531 479.131 255.836 479.207 256.122C479.282 256.409 479.464 256.655 479.716 256.811C479.975 256.959 480.281 256.999 480.568 256.924C480.856 256.848 481.103 256.663 481.255 256.407C481.507 255.959 481.635 255.452 481.627 254.938C481.62 254.424 481.477 253.921 481.213 253.48C480.949 253.039 480.573 252.675 480.124 252.426C479.674 252.176 479.167 252.05 478.653 252.059C478.31 252.064 477.971 252.13 477.651 252.255C477.257 252.383 476.895 252.593 476.589 252.872C476.191 253.368 476.466 252.86 476.483 252.962C476.481 252.951 476.883 253.186 476.913 253.205L476.952 253.307C476.923 253.182 476.918 253.185 476.936 253.317C476.935 253.21 476.924 253.103 476.925 252.995C476.962 252.498 476.926 251.998 476.815 251.511C476.722 251.201 476.55 250.919 476.316 250.695C476.082 250.471 475.793 250.311 475.479 250.232C474.874 250.135 474.254 250.258 473.733 250.579C473.533 250.696 473.328 250.802 473.117 250.897C473.302 250.826 473.056 250.92 473.027 250.908C472.889 250.855 473.159 250.905 473.172 250.911C473.25 250.945 473.375 251.11 473.386 251.113C473.337 251.102 473.34 250.928 473.338 250.896C473.312 250.502 473.444 250.109 473.444 249.715C473.458 249.342 473.381 248.97 473.22 248.633C473.058 248.296 472.817 248.003 472.518 247.78C472.197 247.544 471.804 247.425 471.406 247.443C471.008 247.461 470.628 247.616 470.33 247.88C469.311 248.818 469.727 250.35 470.183 251.453C470.691 252.709 471.471 253.837 472.466 254.755C473.462 255.674 474.648 256.36 475.941 256.765C477.572 257.206 479.253 257.435 480.943 257.446C481.241 257.446 481.527 257.327 481.738 257.116C481.949 256.905 482.068 256.619 482.068 256.321C482.068 256.023 481.949 255.736 481.738 255.525C481.527 255.314 481.241 255.196 480.943 255.196Z" fill="#3F3D56"/>
<path id="Vector_43" d="M481.899 256.3C482.107 254.196 482.348 251.956 483.685 250.229C484.268 249.484 484.993 248.863 485.818 248.401C486.194 248.185 486.592 248.008 487.004 247.873C487.235 247.798 487.469 247.746 487.703 247.682C488.116 247.569 487.625 247.67 487.836 247.654C487.896 247.648 487.956 247.646 488.016 247.647C488.158 247.656 488.176 247.655 488.07 247.645C488.234 247.551 488.182 247.747 488.109 247.647L488.042 247.598C487.96 247.52 487.904 247.418 487.882 247.306C487.861 247.195 487.875 247.079 487.922 246.976C487.909 246.832 488.16 246.944 487.796 246.886C487.206 246.746 486.596 246.711 485.994 246.784C485.715 246.833 485.45 246.94 485.215 247.099C484.981 247.258 484.783 247.464 484.633 247.705C484.484 247.946 484.388 248.215 484.35 248.496C484.312 248.777 484.334 249.062 484.414 249.334C484.555 249.737 484.722 250.131 484.914 250.512C484.841 250.334 484.919 250.542 484.932 250.588C484.974 250.727 484.902 250.78 484.948 250.62C484.958 250.545 484.98 250.472 485.013 250.404C485.048 250.348 485.096 250.301 485.152 250.267C485.283 250.219 485.286 250.213 485.161 250.25C485.178 250.222 485.425 250.254 485.163 250.243C485.057 250.239 484.951 250.242 484.845 250.237C484.682 250.228 484.519 250.21 484.357 250.202C483.884 250.157 483.408 250.248 482.986 250.464C482.667 250.654 482.414 250.938 482.263 251.277C482.111 251.617 482.068 251.994 482.139 252.359C482.331 252.893 482.576 253.407 482.868 253.893C482.911 254.027 482.913 254.171 482.872 254.305C482.831 254.44 482.75 254.559 482.64 254.646C482.53 254.733 482.395 254.785 482.255 254.793C482.115 254.802 481.975 254.767 481.855 254.694C480.59 253.987 479.454 255.929 480.719 256.637C481.174 256.91 481.694 257.055 482.224 257.055C482.754 257.055 483.274 256.91 483.729 256.637C484.183 256.364 484.555 255.972 484.803 255.504C485.052 255.036 485.169 254.509 485.14 253.98C485.041 253.293 484.788 252.637 484.4 252.062C484.4 252.062 484.28 251.871 484.328 251.886C484.62 251.98 484.181 252.345 484.121 252.407L484.015 252.454C484.14 252.426 484.133 252.425 483.995 252.449C484.098 252.444 484.2 252.445 484.303 252.449C484.818 252.519 485.341 252.501 485.85 252.396C486.157 252.307 486.437 252.141 486.662 251.914C486.887 251.687 487.051 251.406 487.138 251.099C487.249 250.472 487.134 249.826 486.811 249.276C486.776 249.2 486.595 248.786 486.65 248.937C486.643 248.918 486.556 248.636 486.56 248.635C486.672 248.634 486.441 249.022 486.577 248.748C486.734 248.43 486.423 249.081 486.401 248.995C486.392 248.96 486.611 248.972 486.621 248.972C487.015 248.982 487.4 249.121 487.796 249.136C488.179 249.164 488.564 249.093 488.913 248.931C489.262 248.77 489.564 248.522 489.791 248.211C490.024 247.883 490.136 247.483 490.107 247.081C490.078 246.679 489.911 246.3 489.633 246.007C488.715 245.07 487.22 245.4 486.133 245.798C484.903 246.244 483.778 246.939 482.828 247.839C481.786 248.846 480.994 250.084 480.517 251.453C480.031 253.027 479.739 254.655 479.649 256.3C479.651 256.598 479.77 256.883 479.981 257.093C480.191 257.304 480.476 257.423 480.774 257.425C481.07 257.419 481.353 257.298 481.562 257.088C481.772 256.879 481.893 256.596 481.899 256.3V256.3Z" fill="#3F3D56"/>
<path id="Vector_44" d="M481.801 253.947C480.847 252.15 479.704 250.459 478.394 248.903C478.087 248.536 477.77 248.179 477.444 247.829C477.142 247.55 476.863 247.247 476.611 246.922C476.563 246.842 476.574 246.799 476.547 246.781C476.527 246.703 476.526 246.698 476.543 246.766C476.561 246.811 476.562 246.861 476.546 246.906C476.56 246.995 476.457 246.977 476.556 246.891C476.378 247.045 476.24 247.189 475.959 247.103C475.854 247.071 475.784 246.957 475.703 246.914C475.625 246.872 475.725 246.878 475.704 246.941C475.66 247.071 475.544 247.364 475.474 247.535L477.644 248.134C477.672 247.995 477.775 247.856 477.641 248.016C477.691 247.958 477.745 247.903 477.803 247.853C477.731 247.914 477.75 247.906 477.863 247.831C477.707 247.889 478.029 247.782 478.033 247.781C477.815 247.827 478.331 247.826 478.142 247.787C478.345 247.841 478.532 247.943 478.687 248.086C478.842 248.228 478.96 248.405 479.031 248.603C479.262 249.214 479.362 249.867 479.324 250.52C479.329 251.265 479.252 252.009 479.095 252.738C479.023 253.026 479.064 253.33 479.211 253.588C479.357 253.846 479.597 254.037 479.881 254.122C480.169 254.199 480.475 254.159 480.733 254.012C480.992 253.865 481.183 253.623 481.265 253.337C481.715 251.238 481.93 248.522 480.488 246.747C480.178 246.349 479.775 246.033 479.316 245.824C478.856 245.616 478.353 245.521 477.849 245.55C477.295 245.589 476.767 245.802 476.341 246.159C475.914 246.515 475.611 246.997 475.474 247.535C475.395 247.823 475.433 248.131 475.58 248.39C475.728 248.65 475.972 248.84 476.26 248.919C476.547 248.999 476.855 248.96 477.114 248.813C477.374 248.666 477.564 248.421 477.644 248.134C477.832 247.77 477.931 247.366 477.931 246.956C477.931 246.546 477.834 246.142 477.646 245.778C477.451 245.441 477.151 245.177 476.792 245.026C476.434 244.874 476.036 244.844 475.658 244.939C475.282 245.064 474.952 245.3 474.713 245.616C474.473 245.932 474.335 246.313 474.316 246.709C474.313 247.07 474.383 247.427 474.521 247.761C474.659 248.094 474.863 248.396 475.12 248.648C475.973 249.622 476.882 250.525 477.654 251.57C478.476 252.684 479.213 253.858 479.858 255.082C479.933 255.21 480.032 255.322 480.149 255.411C480.267 255.5 480.401 255.566 480.544 255.603C480.687 255.64 480.836 255.649 480.982 255.629C481.129 255.609 481.27 255.561 481.397 255.486C481.525 255.411 481.637 255.312 481.726 255.195C481.815 255.077 481.88 254.943 481.918 254.8C481.955 254.657 481.964 254.508 481.944 254.362C481.924 254.215 481.875 254.074 481.801 253.947V253.947Z" fill="#3F3D56"/>
</g>
<path id="Vector_45" d="M606 369H134V372H606V369Z" fill="#43C07D"/>
<path id="Vector_46" d="M338.664 281.506C338.664 279.547 336.381 277.959 333.564 277.959C330.748 277.959 328.465 279.547 328.465 281.506C328.465 283.466 330.748 285.054 333.564 285.054C336.381 285.054 338.664 283.466 338.664 281.506Z" fill="#3F3D56"/>
<path id="Vector_47" d="M301.193 293.036C304.009 293.036 306.292 291.448 306.292 289.488C306.292 287.529 304.009 285.941 301.193 285.941C298.376 285.941 296.093 287.529 296.093 289.488C296.093 291.448 298.376 293.036 301.193 293.036Z" fill="#3F3D56"/>
<path id="Vector_48" d="M346.424 310.33C349.241 310.33 351.524 308.742 351.524 306.783C351.524 304.824 349.241 303.235 346.424 303.235C343.608 303.235 341.325 304.824 341.325 306.783C341.325 308.742 343.608 310.33 346.424 310.33Z" fill="#3F3D56"/>
<path id="Vector_49" d="M359.844 318.488C359.594 318.513 359.343 318.491 359.102 318.422C358.557 318.167 358.092 317.771 357.754 317.274C357.416 316.778 357.217 316.199 357.18 315.599C357.032 314.973 357.079 314.317 357.313 313.718C357.548 313.119 357.959 312.606 358.492 312.246C358.637 312.172 358.794 312.123 358.956 312.101C360.188 311.928 361.381 313.227 361.62 314.99C361.858 316.752 361.063 318.316 359.844 318.488Z" fill="#3F3D56"/>
<path id="Vector_50" d="M323.927 301.455C322.7 301.624 321.903 303.19 322.146 304.953C322.389 306.717 323.58 308.009 324.807 307.84C326.033 307.671 326.831 306.105 326.588 304.341C326.345 302.578 325.154 301.286 323.927 301.455Z" fill="#3F3D56"/>
<path id="Vector_51" d="M341.304 294.11C341.061 292.346 339.869 291.054 338.643 291.223C337.416 291.392 336.618 292.958 336.861 294.722C337.104 296.485 338.296 297.777 339.522 297.608C340.749 297.439 341.547 295.873 341.304 294.11Z" fill="#3F3D56"/>
<path id="Vector_52" d="M315.302 286.179C316.529 286.01 317.326 284.443 317.083 282.68C316.84 280.916 315.649 279.624 314.422 279.793C313.196 279.962 312.398 281.528 312.641 283.292C312.884 285.055 314.075 286.348 315.302 286.179Z" fill="#3F3D56"/>
<path id="Vector_53" d="M319.65 312.805C319.64 311.461 318.065 310.384 316.133 310.398C314.201 310.413 312.643 311.515 312.653 312.859C312.664 314.203 314.238 315.28 316.17 315.266C318.102 315.251 319.66 314.149 319.65 312.805Z" fill="#3F3D56"/>
<path id="Vector_54" d="M294.006 320.912C295.938 320.897 297.496 319.795 297.485 318.451C297.475 317.107 295.9 316.03 293.968 316.045C292.036 316.059 290.478 317.161 290.489 318.505C290.499 319.849 292.074 320.927 294.006 320.912Z" fill="#3F3D56"/>
<path id="Vector_55" d="M325.126 332.537C327.058 332.522 328.615 331.421 328.605 330.077C328.595 328.733 327.02 327.655 325.088 327.67C323.156 327.685 321.598 328.786 321.609 330.13C321.619 331.475 323.193 332.552 325.126 332.537Z" fill="#3F3D56"/>
<path id="Vector_56" d="M334.374 338.063C334.203 338.081 334.03 338.067 333.865 338.021C333.49 337.849 333.169 337.58 332.934 337.241C332.7 336.902 332.56 336.506 332.532 336.095C332.427 335.666 332.456 335.216 332.613 334.804C332.771 334.392 333.05 334.037 333.414 333.788C333.513 333.736 333.621 333.702 333.731 333.685C334.576 333.561 335.401 334.445 335.574 335.653C335.747 336.861 335.21 337.938 334.374 338.063Z" fill="#3F3D56"/>
<path id="Vector_57" d="M309.646 326.567C308.805 326.69 308.266 327.768 308.442 328.977C308.618 330.185 309.442 331.065 310.283 330.943C311.123 330.821 311.662 329.742 311.486 328.533C311.31 327.325 310.486 326.445 309.646 326.567Z" fill="#3F3D56"/>
<path id="Vector_58" d="M321.527 321.437C321.351 320.229 320.527 319.348 319.687 319.471C318.846 319.593 318.307 320.672 318.483 321.88C318.659 323.089 319.483 323.969 320.324 323.846C321.165 323.724 321.703 322.645 321.527 321.437Z" fill="#3F3D56"/>
<path id="Vector_59" d="M303.649 316.133C304.489 316.011 305.028 314.932 304.852 313.724C304.676 312.515 303.852 311.635 303.011 311.758C302.171 311.88 301.632 312.959 301.808 314.167C301.984 315.375 302.808 316.256 303.649 316.133Z" fill="#3F3D56"/>
<path id="Vector_60" d="M270.943 307.938C270.928 305.979 268.633 304.408 265.817 304.43C263 304.452 260.729 306.057 260.744 308.017C260.76 309.976 263.055 311.546 265.871 311.525C268.688 311.503 270.958 309.897 270.943 307.938Z" fill="#3F3D56"/>
<path id="Vector_61" d="M233.562 319.755C236.378 319.734 238.649 318.128 238.634 316.169C238.619 314.21 236.324 312.639 233.507 312.66C230.691 312.682 228.42 314.288 228.435 316.247C228.45 318.206 230.746 319.777 233.562 319.755Z" fill="#F2F2F2"/>
<path id="Vector_62" d="M278.925 336.702C281.741 336.68 284.012 335.074 283.997 333.115C283.982 331.156 281.687 329.585 278.87 329.607C276.054 329.628 273.783 331.234 273.798 333.193C273.813 335.153 276.109 336.723 278.925 336.702Z" fill="#3F3D56"/>
<path id="Vector_63" d="M292.407 344.756C292.158 344.783 291.906 344.763 291.664 344.696C291.118 344.445 290.65 344.052 290.308 343.558C289.966 343.064 289.763 342.487 289.721 341.888C289.569 341.263 289.61 340.606 289.84 340.006C290.07 339.405 290.477 338.888 291.007 338.525C291.152 338.449 291.308 338.399 291.47 338.375C292.701 338.194 293.904 339.483 294.156 341.244C294.408 343.005 293.625 344.575 292.407 344.756Z" fill="#3F3D56"/>
<path id="Vector_64" d="M256.36 327.999C255.135 328.178 254.349 329.75 254.606 331.512C254.862 333.273 256.063 334.556 257.289 334.378C258.514 334.199 259.3 332.627 259.043 330.865C258.787 329.104 257.585 327.821 256.36 327.999Z" fill="#3F3D56"/>
<path id="Vector_65" d="M273.68 320.521C273.423 318.759 272.222 317.476 270.997 317.655C269.771 317.833 268.986 319.406 269.243 321.167C269.499 322.928 270.7 324.212 271.926 324.033C273.151 323.855 273.936 322.282 273.68 320.521Z" fill="#3F3D56"/>
<path id="Vector_66" d="M247.618 312.79C248.843 312.611 249.629 311.039 249.372 309.277C249.116 307.516 247.915 306.233 246.689 306.411C245.464 306.59 244.679 308.162 244.935 309.924C245.192 311.685 246.393 312.968 247.618 312.79Z" fill="#3F3D56"/>
<path id="Vector_67" d="M302.471 299.808C302.471 314.081 268.697 288.588 239.856 308.652C204.66 333.135 175.235 315.665 175.239 299.808C175.243 285.535 204.721 256.964 239.855 256.964C274.989 256.964 302.471 285.535 302.471 299.808Z" fill="#43C07D"/>
<path id="Vector_68" d="M271.663 283.506C271.663 290.643 257.422 290.428 239.855 290.428C222.288 290.428 208.047 290.643 208.047 283.506C208.047 276.37 222.288 264.585 239.855 264.585C257.422 264.585 271.663 276.37 271.663 283.506Z" fill="#3F3D56"/>
<path id="Vector_69" d="M20.9381 331.262L20.8931 341.278L60.3671 346.222L60.4341 331.439L20.9381 331.262Z" fill="#FFB6B6"/>
<path id="Vector_70" d="M26.3214 341.957L25.7314 331.277L25.5914 328.667L0.291417 326.447L0.251439 333.957L7.34143 335.327L0.231419 338.727L0.141423 358.637C0.136257 359.592 0.436785 360.524 0.999028 361.296C1.56127 362.068 2.35575 362.64 3.26633 362.928C4.17692 363.216 5.15584 363.206 6.05997 362.898C6.9641 362.59 7.74602 362.001 8.29142 361.217L11.5814 356.507L19.3414 345.367L26.5114 345.397L26.3214 341.957Z" fill="#43C07D"/>
<path id="Vector_71" d="M195.881 314.947C189.281 332.197 183.701 345.547 181.411 347.827C178.871 350.367 161.671 351.427 140.411 351.717C117.971 352.017 91.0114 351.467 71.9614 350.947H71.9514C57.5614 350.547 47.6814 350.157 47.6814 350.157L47.7014 344.637L47.7514 331.377L47.7614 328.727C47.7614 328.727 48.2414 328.597 49.1214 328.327C50.7514 327.857 53.7714 326.977 57.7314 325.807C70.1714 322.127 91.8114 315.657 108.141 310.377C113.491 308.637 118.281 307.037 121.981 305.697C126.221 304.177 129.041 302.997 129.671 302.367C133.401 298.727 135.051 302.367 137.411 305.997C139.771 309.637 140.501 305.997 143.591 303.327C146.681 300.657 153.651 304.327 153.651 304.327C153.651 304.327 153.711 301.907 153.811 298.057C153.961 292.367 154.181 283.507 154.391 274.647C154.381 274.637 154.381 274.637 154.391 274.637C154.401 274.247 154.411 273.847 154.421 273.457C159.221 277.627 164.351 281.447 169.461 286.227C172.791 289.337 177.871 294.487 181.491 298.167C182.221 298.917 183.161 299.907 183.901 300.687C188.266 305.115 192.272 309.884 195.881 314.947Z" fill="#2F2E41"/>
<path id="Vector_72" d="M33.114 360.032L33.878 370.019L73.623 371.758L72.494 357.018L33.114 360.032Z" fill="#FFB6B6"/>
<path id="Vector_73" d="M39.3415 370.257L37.9015 359.667L37.5415 357.067L12.1415 356.897L12.7115 364.387L19.8815 365.177L13.0815 369.147L14.6015 389.007C14.6746 389.959 15.0501 390.862 15.6729 391.585C16.2958 392.308 17.1335 392.813 18.0638 393.026C18.9941 393.24 19.9682 393.15 20.8439 392.771C21.7196 392.391 22.4511 391.742 22.9315 390.917L32.6715 374.217L39.8114 373.677L39.3415 370.257Z" fill="#43C07D"/>
<path id="Vector_74" d="M204.341 356.377C196.321 368.917 97.5314 381.177 60.4414 374.217C60.5114 373.217 60.6214 372.207 60.7514 371.197C61.3014 366.757 62.3314 362.227 63.1914 357.727C63.5515 355.837 63.8914 353.947 64.1514 352.067C65.4014 351.867 64.0314 351.997 65.6714 351.737C67.7501 351.368 69.8461 351.104 71.9514 350.947H71.9614C72.6014 350.897 73.3214 350.847 74.1714 350.787C93.0614 349.497 117.111 354.937 133.991 345.687C138.761 343.067 139.061 342.327 139.761 341.497C143.821 336.637 144.211 340.657 147.711 342.397C151.211 344.137 150.571 341.087 151.551 338.427C152.531 335.767 156.861 336.117 159.371 335.727C157.041 333.567 158.571 333.187 154.721 331.337C149.041 328.597 139.631 324.557 132.971 321.867C132.95 321.853 132.926 321.843 132.901 321.837C130.091 320.757 126.131 319.047 123.601 317.977C121.641 317.147 118.221 315.587 117.141 315.177C114.761 314.267 110.651 322.867 108.141 321.377C107.251 320.837 106.571 320.417 106.231 320.217C102.001 317.687 105.321 319.007 104.881 315.937C104.821 315.557 104.991 314.577 104.941 314.247C104.831 313.467 105.091 312.167 104.711 311.697C104.321 311.237 103.031 313.557 102.221 313.897C101.861 314.057 100.441 315.167 99.2814 315.047C94.2814 314.497 90.8814 309.617 89.1514 304.727C74.5914 298.417 64.9714 283.677 62.6814 269.917C60.7414 258.297 64.1914 249.017 67.2414 241.367C69.9814 234.507 70.8314 235.457 73.8714 230.557C73.7814 229.677 73.7814 229.907 73.7814 229.967C73.7814 229.877 73.7614 229.517 73.7014 228.337C73.5414 225.177 73.1614 215.847 72.9814 211.497C74.2363 210.104 75.6491 208.862 77.1914 207.797C81.9215 204.277 89.0014 202.257 94.1715 201.267C100.061 200.137 107.691 200.947 111.951 201.567C118.591 202.527 120.791 203.817 126.331 205.117C126.341 215.667 128.541 212.727 127.461 226.407C126.371 240.087 164.351 281.447 169.461 286.227C172.791 289.337 177.871 294.487 181.491 298.167C182.221 298.917 183.161 299.907 183.901 300.687C188.141 305.157 196.751 316.237 197.161 316.897C197.681 317.727 197.901 318.377 198.321 319.177C198.331 319.197 212.351 343.837 204.341 356.377Z" fill="#2F2E41"/>
<path id="Vector_75" d="M185.137 264.871C184.561 264.207 183.854 263.669 183.06 263.291C182.266 262.913 181.403 262.703 180.524 262.675C180.524 262.675 148.765 258.857 144.073 255.633C142.485 255.582 140.935 256.127 139.727 257.159C138.519 258.191 137.74 259.637 137.543 261.214L107.265 266.92C105.834 267.193 104.57 268.023 103.75 269.226C102.931 270.43 102.622 271.91 102.891 273.341C103.161 274.772 103.987 276.038 105.189 276.861C106.391 277.683 107.87 277.996 109.302 277.73L139.425 272.053C139.996 273.388 141.005 274.488 142.285 275.172C143.566 275.856 145.041 276.082 146.468 275.814L180.388 269.421C185.225 268.51 188.362 268.59 185.137 264.871Z" fill="#43C07D"/>
<path id="Vector_76" d="M96.2249 214.731L88.9056 143.845C88.6044 140.841 89.4964 137.839 91.3891 135.487C93.2818 133.135 96.0234 131.621 99.0224 131.273C100.574 131.092 102.146 131.23 103.642 131.677C105.139 132.124 106.529 132.871 107.727 133.872C108.925 134.874 109.907 136.109 110.613 137.503C111.318 138.896 111.733 140.419 111.83 141.977L117.176 215.843L122.316 260.589C124.294 261.17 126.045 262.345 127.332 263.955C128.619 265.565 129.379 267.532 129.508 269.589C129.638 271.646 129.131 273.693 128.057 275.452C126.983 277.211 125.393 278.597 123.504 279.421C121.615 280.245 119.518 280.468 117.498 280.059C115.478 279.649 113.633 278.628 112.213 277.134C110.794 275.64 109.869 273.744 109.564 271.706C109.259 269.668 109.589 267.585 110.509 265.74L96.2249 214.731Z" fill="#FFB6B6"/>
<path id="Vector_77" d="M83.8836 158.962C83.2976 158.506 82.8777 157.87 82.6883 157.152C82.4989 156.433 82.5505 155.673 82.8351 154.987C83.1703 154.134 83.2307 153.197 83.0079 152.308C82.9629 152.137 82.9066 151.968 82.8395 151.804C82.4111 150.826 82.2254 149.758 82.2979 148.692C82.3705 147.627 82.6993 146.594 83.2564 145.683C85.1327 142.709 85.6735 138.512 85.6619 134.835C85.6492 130.812 85.4183 126.729 86.3691 122.819C87.7407 117.18 92.0803 111.742 99.1677 113.134C102.173 113.773 104.866 115.428 106.794 117.82C110.89 122.769 111.789 129.288 112.589 135.533L113.48 132.906C114.235 139.741 116.362 146.355 119.735 152.348C118.184 152.255 117.383 154.428 118.065 155.824C118.747 157.221 120.225 158.002 121.517 158.866C123.146 159.954 124.775 161.674 123.664 163.813C123.384 164.317 123.003 164.758 122.544 165.107C122.086 165.457 121.56 165.708 121 165.845C110.47 168.653 99.4731 169.253 88.7002 167.608C86.3077 167.241 83.7149 166.636 82.2412 164.716C80.7675 162.796 81.4798 159.246 83.8836 158.962Z" fill="#43C07D"/>
<g id="waterpot">
<path id="Vector_78" d="M300.891 223.387L298.612 227.945L337.72 251.008L334.651 271.469L296.117 232.935L293.73 237.709L292.974 236.197C292.299 234.848 291.981 233.348 292.048 231.841C292.116 230.333 292.568 228.868 293.362 227.585C294.155 226.302 295.263 225.242 296.581 224.507C297.899 223.773 299.382 223.387 300.891 223.387Z" fill="#3F3D56"/>
<path id="Vector_79" d="M334.651 243.98L332.605 279.878C332.604 280.789 332.782 281.691 333.131 282.533C333.479 283.375 333.99 284.14 334.634 284.784C335.278 285.429 336.043 285.94 336.885 286.288C337.727 286.636 338.63 286.815 339.541 286.814C359.203 296.832 365.341 297.113 382.957 286.814C383.869 286.815 384.771 286.636 385.613 286.288C386.455 285.94 387.22 285.429 387.864 284.784C388.508 284.14 389.019 283.375 389.367 282.533C389.716 281.691 389.894 280.789 389.893 279.878L387.847 243.111L389.893 233.392C389.894 232.481 389.716 231.578 389.367 230.736C389.019 229.895 388.508 229.129 387.864 228.485C387.22 227.841 386.455 227.33 385.613 226.982C384.771 226.634 383.868 226.455 382.957 226.456H339.541C338.629 226.455 337.727 226.634 336.885 226.982C336.043 227.33 335.278 227.841 334.634 228.485C333.99 229.13 333.479 229.895 333.131 230.736C332.782 231.578 332.604 232.481 332.604 233.392L334.651 243.98Z" fill="#43C07D"/>
<path id="Vector_80" d="M345.904 226.967C345.904 232.901 353.229 237.709 362.272 237.709C371.316 237.709 378.64 232.901 378.64 226.967C378.64 226.793 378.63 226.63 378.62 226.456H345.924C345.914 226.63 345.904 226.793 345.904 226.967Z" fill="#F2F2F2"/>
<path id="Vector_81" d="M366.876 209.971C366.874 208.781 366.401 207.641 365.56 206.8C364.719 205.959 363.578 205.485 362.389 205.484H362.155C360.966 205.485 359.825 205.959 358.984 206.8C358.143 207.641 357.67 208.781 357.668 209.971V241.29H366.876V209.971Z" fill="#3F3D56"/>
</g>
</g>
</svg>
