<svg width="325" height="372" viewBox="0 0 325 372" fill="none" xmlns="http://www.w3.org/2000/svg">
<g id="tuinarrow">
<path id="expressarrow" d="M155.007 257.727C153.101 242.477 151.018 227.07 152.507 211.282C154.443 190.755 157.178 170.089 160.562 149.782C163.131 134.373 168.951 119.917 174.007 105.282C176.023 99.4462 178.64 93.187 182.007 87.9491C184.549 83.9945 188.458 80.5338 190.785 76.7269C192.838 73.3666 197.044 68.7375 200.562 66.7269C204.454 64.503 206.592 59.4667 210.507 57.7269C213.224 56.5193 215.184 52.5833 218.007 50.9491C219.985 49.8038 223.248 47.888 224.785 46.5046C228.258 43.3788 232.777 42.4331 237.229 40.9491C251.655 36.1404 266.722 34.7269 282.007 34.7269C290.34 34.7269 298.674 34.7269 307.007 34.7269C309.34 34.7269 311.674 34.7269 314.007 34.7269C317.554 34.7269 315.069 32.5004 314.229 30.7269C309 19.6874 298.919 11.6387 290.507 3.22687C286.211 -1.06934 291.934 7.17566 293.062 8.72687C298.226 15.827 302.826 23.2693 308.062 30.338C312.176 35.892 317.063 40.9 321.007 46.5046C323.882 50.5907 323.094 51.7703 319.007 54.9491C312.714 59.8439 307.176 65.2264 300.007 68.9491C297.421 70.292 291.007 72.3504 291.007 75.7269" stroke="black" stroke-width="3" stroke-linecap="round"/>
<g id="tuinFirstT">
<path id="Vector 1" d="M19 270C21.6818 284.829 21.354 300.416 25 315" stroke="black" stroke-width="3" stroke-linecap="round"/>
<path id="Vector 2" d="M1.51495 270.445C3.1937 270.445 4.80529 269.606 6.44268 269.279C10.6568 268.436 14.9021 267.592 19.157 266.984C27.0312 265.859 34.8849 266.044 42.8176 266.044" stroke="black" stroke-width="3" stroke-linecap="round"/>
</g>
<path id="tuinU" d="M36.3852 290.081C36.3852 295.476 33.0594 307.781 41.1248 309.303C45.619 310.15 50.5446 306.3 52.278 302.4C54.8798 296.546 52.7976 290.604 49.927 285.341" stroke="black" stroke-width="3" stroke-linecap="round"/>
<g id="tuinI">
<path id="Vector 4" d="M65.1616 287.034C65.2699 289.093 66.2257 291.297 66.8355 293.24C67.7127 296.036 68.4065 298.942 69.1489 301.779C69.7146 303.941 70.7188 305.979 71.2366 308.136C71.6393 309.814 71.594 308.899 71.594 307.685" stroke="black" stroke-width="3" stroke-linecap="round"/>
<path id="Vector 5" d="M63.8074 273.153C62.5462 273.153 61.7761 274.516 61.7761 275.674C61.7761 277.671 63.3148 278.232 65.1616 278.232C67.8844 278.232 68.2085 275.717 68.2085 273.492C68.2085 269.815 65.5998 269.429 62.4532 269.429" stroke="black" stroke-width="3" stroke-linecap="round"/>
</g>
<g id="tuinN">
<path id="Vector 6" d="M83.7816 280.94C83.7816 284.528 85.2402 288.321 85.8881 291.849C86.5212 295.295 88.1827 299.099 88.1827 302.607" stroke="black" stroke-width="3" stroke-linecap="round"/>
<path id="Vector 7" d="M86.49 288.726C86.49 287.185 86.0474 285.226 87.3552 284.156C90.2506 281.787 97.1153 282.557 99.6933 285.002C102.679 287.835 102.995 291.458 103.925 295.178C104.172 296.164 103.971 300.667 103.756 300.237" stroke="black" stroke-width="3" stroke-linecap="round"/>
</g>
<path id="tuinE" d="M115.605 284.325C120.213 284.325 125.198 285.552 129.41 282.896C131.287 281.713 131.274 279.531 131.159 277.573C131.001 274.883 129.247 273.83 126.777 273.83C118.903 273.83 112.133 281.89 114.627 289.648C117.419 298.334 128.101 297.272 134.902 295.497" stroke="black" stroke-width="3" stroke-linecap="round"/>
<g id="tuinX">
<path id="Vector 9" d="M161.986 270.106C160.202 270.701 158.906 275.924 158.262 277.404C156.679 281.039 154.7 284.504 152.356 287.692C151.134 289.354 149.483 291.765 147.428 292.45" stroke="black" stroke-width="3" stroke-linecap="round"/>
<path id="Vector 10" d="M149.798 272.138C150.158 274.537 152.636 277.271 154.124 279.021C157.203 282.646 160.566 285.751 164.544 288.369C168.281 290.829 172.33 292.459 176.6 293.748C177.021 293.875 180.015 294.655 179.59 293.805" stroke="black" stroke-width="3" stroke-linecap="round"/>
</g>
<g id="tuinP">
<path id="Vector 11" d="M185.345 268.752C185.588 271.662 186.84 274.751 187.546 277.573C189.009 283.424 189.888 289.427 191.025 295.347C191.786 299.304 192.479 303.233 193.602 307.102C194.165 309.041 193.618 307.218 193.471 306.331" stroke="black" stroke-width="3" stroke-linecap="round"/>
<path id="Vector 12" d="M184.668 266.721C184.818 265.521 191.278 266.91 191.909 267.06C195.539 267.921 199.909 269.051 201.859 272.551C202.705 274.07 203.36 275.826 203.89 277.479C204.791 280.285 203.866 281.082 201.144 282.256C197.292 283.918 193.489 283.648 189.408 283.648" stroke="black" stroke-width="3" stroke-linecap="round"/>
</g>
<g id="tuinR">
<path id="Vector 13" d="M212.768 256.565C213.1 258.561 214.404 260.707 215.137 262.583C216.396 265.803 217.26 269.149 218.184 272.476C218.955 275.251 219.301 278.014 219.614 280.865C219.72 281.829 219.574 283.684 220.216 284.325" stroke="black" stroke-width="3" stroke-linecap="round"/>
<path id="Vector 14" d="M217.507 267.06C217.507 263.165 219.3 260.845 222.924 259.085C226.487 257.354 230.699 257.58 234.547 257.58C235.305 257.58 237.767 257.136 238.159 257.919" stroke="black" stroke-width="3" stroke-linecap="round"/>
</g>
<path id="tuinSecondE" d="M247.638 262.997C250.324 262.997 253.15 263.234 255.763 262.508C258.486 261.752 262.882 260.086 264.415 257.505C267.494 252.319 262.524 247.655 257.305 248.59C251.254 249.675 245.097 260.115 246.848 266.119C248.516 271.837 256.245 272.786 261.18 271.799" stroke="black" stroke-width="3" stroke-linecap="round"/>
<path id="tuinFirstS" d="M287.925 246.408C287.925 241.845 279.843 244.357 278.145 246.596C274.084 251.949 278.456 256.087 283.599 257.844C286.627 258.878 289.734 259.528 292.458 261.285C292.968 261.615 295.638 262.996 294.32 263.843C292.794 264.824 290.001 265.009 288.263 265.028C285.707 265.057 282.971 265.313 280.477 264.69" stroke="black" stroke-width="3" stroke-linecap="round"/>
<path id="tuinSecondS" d="M307.222 239.637C306.912 238.397 294.074 241.328 295.862 245.468C297.021 248.153 302.394 249.015 304.833 249.624C308.533 250.549 312.325 251.421 315.874 252.841C317.57 253.519 322.952 256.98 320.087 259.273C318.561 260.494 313.691 259.642 311.924 259.593C308.545 259.499 305.189 259.273 301.805 259.273" stroke="black" stroke-width="3" stroke-linecap="round"/>
<g id="tuinFirstA">
<path id="Vector 18" d="M78.2754 333.566C78.2754 340.116 77.6733 346.778 76.9916 353.292C76.5095 357.899 76.0279 362.498 74.6888 366.946C74.4561 367.719 73.2645 371.604 72.7732 369.147" stroke="black" stroke-width="3" stroke-linecap="round"/>
<path id="Vector 19" d="M80.1095 335.033C80.1095 334.848 80.2122 335.388 80.2726 335.563C80.9897 337.639 81.94 339.687 82.9014 341.656C85.519 347.019 88.7103 351.704 92.9277 355.921C94.0646 357.058 100.391 364.846 101.752 361.444" stroke="black" stroke-width="3" stroke-linecap="round"/>
<path id="Vector 20" d="M75.7077 352.273C80.3 352.601 84.5507 353.171 89.1577 352.437C92.3275 351.931 98.2465 351.581 99.9176 348.238" stroke="black" stroke-width="3" stroke-linecap="round"/>
</g>
<path id="tuinThirdS" d="M118.258 338.701C118.002 336.398 107.471 337.597 106.928 340.719C105.928 346.465 118.186 346.991 121.539 348.075C123.66 348.762 125.898 351.237 123.761 353.374C120.482 356.653 113.682 353.147 110.188 352.273" stroke="black" stroke-width="3" stroke-linecap="round"/>
<path id="tuinFourthS" d="M135.866 336.867C133.071 336.867 129.157 336.492 128.244 339.883C127.404 343.001 138.698 343.677 140.39 344.122C142.072 344.565 147.433 346.813 143.569 348.972C140.512 350.68 130.385 353.115 133.298 351.173" stroke="black" stroke-width="3" stroke-linecap="round"/>
<g id="tuinSecondI">
<path id="Vector 23" d="M149.438 332.832C149.438 337.152 153.106 340.77 153.106 344.937" stroke="black" stroke-width="3" stroke-linecap="round"/>
<path id="Vector 24" d="M148.704 320.36C148.463 318.193 141.647 316.96 143.283 321.542C144.493 324.93 151.994 322.183 147.604 317.793" stroke="black" stroke-width="3" stroke-linecap="round"/>
</g>
<path id="tuinG" d="M177.316 326.963C177.316 324.796 172.018 325.129 170.693 325.129C167.358 325.129 161.924 324.917 162.725 329.898C163.792 336.541 172.782 336.045 177.132 333.668C179.38 332.439 181.191 330.025 180.536 327.33C180.344 326.542 179.432 325.128 179.15 326.678C178.248 331.638 177.357 336.682 178.865 341.636C180.452 346.851 183.552 351.358 183.552 357.001C183.552 359.216 183.134 363.213 180.169 363.278C177.35 363.339 174.602 362.439 171.834 361.994C169.714 361.653 167.437 361.459 165.578 360.343" stroke="black" stroke-width="3" stroke-linecap="round"/>
<g id="tuinSecondN">
<path id="Vector 26" d="M184.285 318.893C184.819 322.095 187.54 325.534 188.972 328.43C189.772 330.048 191.067 331.901 191.622 333.566" stroke="black" stroke-width="3" stroke-linecap="round"/>
<path id="Vector 27" d="M186.853 322.928C188.434 317.552 196.371 315.63 200.405 319.26C203.051 321.641 203.366 325.142 204.827 328.064" stroke="black" stroke-width="3" stroke-linecap="round"/>
</g>
<g id="tuinM">
<path id="Vector 28" d="M211.796 311.19C211.796 314.467 213.168 317.737 214.364 320.727C215.016 322.357 216.19 324.219 216.504 325.944C216.534 326.111 215.308 324.972 215.098 324.762" stroke="black" stroke-width="3" stroke-linecap="round"/>
<path id="Vector 29" d="M214.731 316.692C214.676 316.142 213.836 314.176 214.568 313.758C216.171 312.842 218.46 312.799 220.233 313.106C224.27 313.804 225.735 319.436 225.735 322.928" stroke="black" stroke-width="3" stroke-linecap="round"/>
<path id="Vector 30" d="M225.002 314.858C225.002 313.294 223.954 311.414 224.289 309.906C224.724 307.948 229.708 307.809 231.054 307.909C235.877 308.266 235.62 314.066 236.74 317.426" stroke="black" stroke-width="3" stroke-linecap="round"/>
</g>
<path id="tuinThirdE" d="M244.443 303.12C247.814 302.783 251.154 300.498 252.35 297.333C253.836 293.4 250.063 292.268 246.807 292.931C241.4 294.032 244.424 305.377 246.277 308.011C248.303 310.89 255.784 314.155 258.749 311.19" stroke="black" stroke-width="3" stroke-linecap="round"/>
<g id="tuinThirdN">
<path id="Vector 32" d="M261.683 291.382C261.683 297.335 265.718 302.708 265.718 308.622" stroke="black" stroke-width="3" stroke-linecap="round"/>
<path id="Vector 33" d="M263.884 299.452C263.884 295.286 267.68 292.767 271.608 293.807C273.67 294.353 276.003 296.254 276.703 298.352C277.177 299.776 277.175 301.458 277.823 302.753" stroke="black" stroke-width="3" stroke-linecap="round"/>
</g>
<g id="tuinSecondT">
<path id="Vector 34" d="M290.295 280.378C291.397 281.892 291.825 284.767 292.292 286.552C292.962 289.109 293.918 291.575 294.513 294.154C295.056 296.506 295.621 298.852 296.164 301.205C296.249 301.572 296.783 304.45 297.265 303.487" stroke="black" stroke-width="3" stroke-linecap="round"/>
<path id="Vector 35" d="M282.959 288.447C284.328 287.9 285.875 288.081 287.32 288.081C291.124 288.081 294.866 287.946 298.65 287.53C302.023 287.16 305.673 286.924 308.636 285.146" stroke="black" stroke-width="3" stroke-linecap="round"/>
</g>
</g>
</svg>
